<mxfile host="app.diagrams.net" agent="Mozilla/5.0 (X11; Ubuntu; Linux x86_64; rv:129.0) Gecko/20100101 Firefox/129.0" version="24.8.0">
  <diagram name="Page-1" id="TQfMiRhKRTwuqKvitWB-">
    <mxGraphModel dx="1087" dy="548" grid="1" gridSize="5" guides="1" tooltips="1" connect="1" arrows="1" fold="1" page="1" pageScale="1" pageWidth="1100" pageHeight="1700" math="0" shadow="0">
      <root>
        <mxCell id="0" />
        <mxCell id="1" parent="0" />
        <mxCell id="eyw2YwXvaOHmk0R-a-mZ-149" value="&lt;div&gt;Caravel&lt;/div&gt;&lt;div&gt;VSCPU3x&lt;br&gt;&lt;/div&gt;" style="whiteSpace=wrap;html=1;verticalAlign=middle;fillColor=#fff2cc;strokeColor=#d6b656;" parent="1" vertex="1">
          <mxGeometry x="160" y="20" width="200" height="280" as="geometry" />
        </mxCell>
        <mxCell id="eyw2YwXvaOHmk0R-a-mZ-150" value="" style="endArrow=none;html=1;rounded=0;" parent="1" edge="1">
          <mxGeometry width="50" height="50" relative="1" as="geometry">
            <mxPoint x="160" y="24.879999999999995" as="sourcePoint" />
            <mxPoint x="140" y="24.879999999999995" as="targetPoint" />
          </mxGeometry>
        </mxCell>
        <mxCell id="eyw2YwXvaOHmk0R-a-mZ-152" value="&lt;font style=&quot;font-size: 7px;&quot;&gt;IO[37]&lt;/font&gt;" style="text;html=1;strokeColor=none;fillColor=none;align=left;verticalAlign=middle;whiteSpace=wrap;rounded=0;" parent="1" vertex="1">
          <mxGeometry x="160" y="20" width="40" height="10" as="geometry" />
        </mxCell>
        <mxCell id="eyw2YwXvaOHmk0R-a-mZ-153" value="&lt;div&gt;&lt;font style=&quot;font-size: 7px;&quot;&gt;IO[36]&lt;/font&gt;&lt;/div&gt;" style="text;html=1;strokeColor=none;fillColor=none;align=left;verticalAlign=middle;whiteSpace=wrap;rounded=0;" parent="1" vertex="1">
          <mxGeometry x="160" y="30" width="40" height="10" as="geometry" />
        </mxCell>
        <mxCell id="eyw2YwXvaOHmk0R-a-mZ-154" value="&lt;font style=&quot;font-size: 7px;&quot;&gt;IO[35]&lt;/font&gt;" style="text;html=1;strokeColor=none;fillColor=none;align=left;verticalAlign=middle;whiteSpace=wrap;rounded=0;" parent="1" vertex="1">
          <mxGeometry x="160" y="40" width="40" height="10" as="geometry" />
        </mxCell>
        <mxCell id="eyw2YwXvaOHmk0R-a-mZ-155" value="&lt;font style=&quot;font-size: 7px;&quot;&gt;IO[34]&lt;/font&gt;" style="text;html=1;strokeColor=none;fillColor=none;align=left;verticalAlign=middle;whiteSpace=wrap;rounded=0;" parent="1" vertex="1">
          <mxGeometry x="160" y="50" width="40" height="10" as="geometry" />
        </mxCell>
        <mxCell id="eyw2YwXvaOHmk0R-a-mZ-156" value="&lt;font style=&quot;font-size: 7px;&quot;&gt;RSTB&lt;/font&gt;" style="text;html=1;strokeColor=none;fillColor=none;align=left;verticalAlign=middle;whiteSpace=wrap;rounded=0;" parent="1" vertex="1">
          <mxGeometry x="160" y="60" width="40" height="10" as="geometry" />
        </mxCell>
        <mxCell id="eyw2YwXvaOHmk0R-a-mZ-157" value="&lt;font style=&quot;font-size: 7px;&quot;&gt;GND&lt;/font&gt;" style="text;html=1;strokeColor=none;fillColor=none;align=left;verticalAlign=middle;whiteSpace=wrap;rounded=0;" parent="1" vertex="1">
          <mxGeometry x="160" y="70" width="40" height="10" as="geometry" />
        </mxCell>
        <mxCell id="eyw2YwXvaOHmk0R-a-mZ-158" value="&lt;font style=&quot;font-size: 7px;&quot;&gt;vddio&lt;/font&gt;" style="text;html=1;strokeColor=none;fillColor=none;align=left;verticalAlign=middle;whiteSpace=wrap;rounded=0;" parent="1" vertex="1">
          <mxGeometry x="160" y="80" width="40" height="10" as="geometry" />
        </mxCell>
        <mxCell id="eyw2YwXvaOHmk0R-a-mZ-159" value="&lt;font style=&quot;font-size: 7px;&quot;&gt;IO[33]&lt;/font&gt;" style="text;html=1;strokeColor=none;fillColor=none;align=left;verticalAlign=middle;whiteSpace=wrap;rounded=0;" parent="1" vertex="1">
          <mxGeometry x="160" y="90" width="40" height="10" as="geometry" />
        </mxCell>
        <mxCell id="eyw2YwXvaOHmk0R-a-mZ-160" value="&lt;font style=&quot;font-size: 7px;&quot;&gt;IO[32]&lt;/font&gt;" style="text;html=1;strokeColor=none;fillColor=none;align=left;verticalAlign=middle;whiteSpace=wrap;rounded=0;" parent="1" vertex="1">
          <mxGeometry x="160" y="100" width="40" height="10" as="geometry" />
        </mxCell>
        <mxCell id="eyw2YwXvaOHmk0R-a-mZ-161" value="&lt;font style=&quot;font-size: 7px;&quot;&gt;IO[31]&lt;/font&gt;" style="text;html=1;strokeColor=none;fillColor=none;align=left;verticalAlign=middle;whiteSpace=wrap;rounded=0;" parent="1" vertex="1">
          <mxGeometry x="160" y="110" width="40" height="10" as="geometry" />
        </mxCell>
        <mxCell id="eyw2YwXvaOHmk0R-a-mZ-162" value="&lt;font style=&quot;font-size: 7px;&quot;&gt;IO[30]&lt;/font&gt;" style="text;html=1;strokeColor=none;fillColor=none;align=left;verticalAlign=middle;whiteSpace=wrap;rounded=0;" parent="1" vertex="1">
          <mxGeometry x="160" y="120" width="40" height="10" as="geometry" />
        </mxCell>
        <mxCell id="eyw2YwXvaOHmk0R-a-mZ-163" value="&lt;font style=&quot;font-size: 7px;&quot;&gt;IO[29]&lt;/font&gt;" style="text;html=1;strokeColor=none;fillColor=none;align=left;verticalAlign=middle;whiteSpace=wrap;rounded=0;" parent="1" vertex="1">
          <mxGeometry x="160" y="130" width="40" height="10" as="geometry" />
        </mxCell>
        <mxCell id="eyw2YwXvaOHmk0R-a-mZ-164" value="&lt;font style=&quot;font-size: 7px;&quot;&gt;IO[28]&lt;/font&gt;" style="text;html=1;strokeColor=none;fillColor=none;align=left;verticalAlign=middle;whiteSpace=wrap;rounded=0;" parent="1" vertex="1">
          <mxGeometry x="160" y="140" width="40" height="10" as="geometry" />
        </mxCell>
        <mxCell id="eyw2YwXvaOHmk0R-a-mZ-165" value="&lt;font style=&quot;font-size: 7px;&quot;&gt;IO[27]&lt;/font&gt;" style="text;html=1;strokeColor=none;fillColor=none;align=left;verticalAlign=middle;whiteSpace=wrap;rounded=0;" parent="1" vertex="1">
          <mxGeometry x="160" y="150" width="40" height="10" as="geometry" />
        </mxCell>
        <mxCell id="eyw2YwXvaOHmk0R-a-mZ-166" value="&lt;font style=&quot;font-size: 7px;&quot;&gt;IO[26]&lt;/font&gt;" style="text;html=1;strokeColor=none;fillColor=none;align=left;verticalAlign=middle;whiteSpace=wrap;rounded=0;" parent="1" vertex="1">
          <mxGeometry x="160" y="160" width="40" height="10" as="geometry" />
        </mxCell>
        <mxCell id="eyw2YwXvaOHmk0R-a-mZ-167" value="&lt;font style=&quot;font-size: 7px;&quot;&gt;IO[25]&lt;/font&gt;" style="text;html=1;strokeColor=none;fillColor=none;align=left;verticalAlign=middle;whiteSpace=wrap;rounded=0;" parent="1" vertex="1">
          <mxGeometry x="160" y="170" width="40" height="10" as="geometry" />
        </mxCell>
        <mxCell id="eyw2YwXvaOHmk0R-a-mZ-168" value="&lt;font style=&quot;font-size: 7px;&quot;&gt;IO[24]&lt;/font&gt;" style="text;html=1;strokeColor=none;fillColor=none;align=left;verticalAlign=middle;whiteSpace=wrap;rounded=0;" parent="1" vertex="1">
          <mxGeometry x="160" y="180" width="40" height="10" as="geometry" />
        </mxCell>
        <mxCell id="eyw2YwXvaOHmk0R-a-mZ-169" value="&lt;font style=&quot;font-size: 7px;&quot;&gt;IO[23]&lt;/font&gt;" style="text;html=1;strokeColor=none;fillColor=none;align=left;verticalAlign=middle;whiteSpace=wrap;rounded=0;" parent="1" vertex="1">
          <mxGeometry x="160" y="190" width="40" height="10" as="geometry" />
        </mxCell>
        <mxCell id="eyw2YwXvaOHmk0R-a-mZ-170" value="&lt;font style=&quot;font-size: 7px;&quot;&gt;IO[22]&lt;/font&gt;" style="text;html=1;strokeColor=none;fillColor=none;align=left;verticalAlign=middle;whiteSpace=wrap;rounded=0;" parent="1" vertex="1">
          <mxGeometry x="160" y="200" width="40" height="10" as="geometry" />
        </mxCell>
        <mxCell id="eyw2YwXvaOHmk0R-a-mZ-171" value="&lt;font style=&quot;font-size: 7px;&quot;&gt;IO[21]&lt;/font&gt;" style="text;html=1;strokeColor=none;fillColor=none;align=left;verticalAlign=middle;whiteSpace=wrap;rounded=0;" parent="1" vertex="1">
          <mxGeometry x="160" y="210" width="40" height="10" as="geometry" />
        </mxCell>
        <mxCell id="eyw2YwXvaOHmk0R-a-mZ-172" value="&lt;font style=&quot;font-size: 7px;&quot;&gt;IO[20]&lt;/font&gt;" style="text;html=1;strokeColor=none;fillColor=none;align=left;verticalAlign=middle;whiteSpace=wrap;rounded=0;" parent="1" vertex="1">
          <mxGeometry x="160" y="220" width="40" height="10" as="geometry" />
        </mxCell>
        <mxCell id="eyw2YwXvaOHmk0R-a-mZ-173" value="&lt;font style=&quot;font-size: 7px;&quot;&gt;IO[19]&lt;/font&gt;" style="text;html=1;strokeColor=none;fillColor=none;align=left;verticalAlign=middle;whiteSpace=wrap;rounded=0;" parent="1" vertex="1">
          <mxGeometry x="160" y="230" width="40" height="10" as="geometry" />
        </mxCell>
        <mxCell id="eyw2YwXvaOHmk0R-a-mZ-174" value="&lt;font style=&quot;font-size: 7px;&quot;&gt;IO[18]&lt;/font&gt;" style="text;html=1;strokeColor=none;fillColor=none;align=left;verticalAlign=middle;whiteSpace=wrap;rounded=0;" parent="1" vertex="1">
          <mxGeometry x="160" y="240" width="40" height="10" as="geometry" />
        </mxCell>
        <mxCell id="eyw2YwXvaOHmk0R-a-mZ-175" value="&lt;font style=&quot;font-size: 7px;&quot;&gt;IO[17]&lt;/font&gt;" style="text;html=1;strokeColor=none;fillColor=none;align=left;verticalAlign=middle;whiteSpace=wrap;rounded=0;" parent="1" vertex="1">
          <mxGeometry x="160" y="250" width="40" height="10" as="geometry" />
        </mxCell>
        <mxCell id="eyw2YwXvaOHmk0R-a-mZ-176" value="&lt;font style=&quot;font-size: 7px;&quot;&gt;IO[16]&lt;/font&gt;" style="text;html=1;strokeColor=none;fillColor=none;align=left;verticalAlign=middle;whiteSpace=wrap;rounded=0;" parent="1" vertex="1">
          <mxGeometry x="160" y="260" width="40" height="10" as="geometry" />
        </mxCell>
        <mxCell id="eyw2YwXvaOHmk0R-a-mZ-177" value="&lt;font style=&quot;font-size: 7px;&quot;&gt;IO[15]&lt;/font&gt;" style="text;html=1;strokeColor=none;fillColor=none;align=left;verticalAlign=middle;whiteSpace=wrap;rounded=0;" parent="1" vertex="1">
          <mxGeometry x="160" y="270" width="40" height="10" as="geometry" />
        </mxCell>
        <mxCell id="eyw2YwXvaOHmk0R-a-mZ-178" value="&lt;font style=&quot;font-size: 7px;&quot;&gt;IO[14]&lt;/font&gt;" style="text;html=1;strokeColor=none;fillColor=none;align=left;verticalAlign=middle;whiteSpace=wrap;rounded=0;" parent="1" vertex="1">
          <mxGeometry x="160" y="280" width="40" height="10" as="geometry" />
        </mxCell>
        <mxCell id="eyw2YwXvaOHmk0R-a-mZ-184" value="&lt;font style=&quot;font-size: 7px;&quot;&gt;GND&lt;/font&gt;" style="text;html=1;strokeColor=none;fillColor=none;align=right;verticalAlign=middle;whiteSpace=wrap;rounded=0;" parent="1" vertex="1">
          <mxGeometry x="320" y="20" width="40" height="10" as="geometry" />
        </mxCell>
        <mxCell id="eyw2YwXvaOHmk0R-a-mZ-185" value="&lt;font style=&quot;font-size: 7px;&quot;&gt;3V3&lt;/font&gt;" style="text;html=1;strokeColor=none;fillColor=none;align=right;verticalAlign=middle;whiteSpace=wrap;rounded=0;" parent="1" vertex="1">
          <mxGeometry x="320" y="30" width="40" height="10" as="geometry" />
        </mxCell>
        <mxCell id="eyw2YwXvaOHmk0R-a-mZ-186" value="&lt;font style=&quot;font-size: 7px;&quot;&gt;3V3&lt;/font&gt;" style="text;html=1;strokeColor=none;fillColor=none;align=right;verticalAlign=middle;whiteSpace=wrap;rounded=0;" parent="1" vertex="1">
          <mxGeometry x="320" y="40" width="40" height="10" as="geometry" />
        </mxCell>
        <mxCell id="eyw2YwXvaOHmk0R-a-mZ-187" value="&lt;font style=&quot;font-size: 7px;&quot;&gt;vdda2&lt;/font&gt;" style="text;html=1;strokeColor=none;fillColor=none;align=right;verticalAlign=middle;whiteSpace=wrap;rounded=0;" parent="1" vertex="1">
          <mxGeometry x="320" y="50" width="40" height="10" as="geometry" />
        </mxCell>
        <mxCell id="eyw2YwXvaOHmk0R-a-mZ-188" value="&lt;font style=&quot;font-size: 7px;&quot;&gt;vccd1&lt;/font&gt;" style="text;html=1;strokeColor=none;fillColor=none;align=right;verticalAlign=middle;whiteSpace=wrap;rounded=0;" parent="1" vertex="1">
          <mxGeometry x="320" y="60" width="40" height="10" as="geometry" />
        </mxCell>
        <mxCell id="eyw2YwXvaOHmk0R-a-mZ-189" value="&lt;font style=&quot;font-size: 7px;&quot;&gt;gpio&lt;/font&gt;" style="text;html=1;strokeColor=none;fillColor=none;align=right;verticalAlign=middle;whiteSpace=wrap;rounded=0;" parent="1" vertex="1">
          <mxGeometry x="320" y="100" width="40" height="10" as="geometry" />
        </mxCell>
        <mxCell id="eyw2YwXvaOHmk0R-a-mZ-190" value="&lt;font style=&quot;font-size: 7px;&quot;&gt;xclk&lt;/font&gt;" style="text;html=1;strokeColor=none;fillColor=none;align=right;verticalAlign=middle;whiteSpace=wrap;rounded=0;" parent="1" vertex="1">
          <mxGeometry x="320" y="110" width="40" height="10" as="geometry" />
        </mxCell>
        <mxCell id="eyw2YwXvaOHmk0R-a-mZ-191" value="&lt;font style=&quot;font-size: 7px;&quot;&gt;GND&lt;/font&gt;" style="text;html=1;strokeColor=none;fillColor=none;align=right;verticalAlign=middle;whiteSpace=wrap;rounded=0;" parent="1" vertex="1">
          <mxGeometry x="320" y="120" width="40" height="10" as="geometry" />
        </mxCell>
        <mxCell id="eyw2YwXvaOHmk0R-a-mZ-192" value="&lt;font style=&quot;font-size: 7px;&quot;&gt;GND&lt;/font&gt;" style="text;html=1;strokeColor=none;fillColor=none;align=right;verticalAlign=middle;whiteSpace=wrap;rounded=0;" parent="1" vertex="1">
          <mxGeometry x="320" y="130" width="40" height="10" as="geometry" />
        </mxCell>
        <mxCell id="eyw2YwXvaOHmk0R-a-mZ-193" value="&lt;font style=&quot;font-size: 7px;&quot;&gt;vdda1&lt;/font&gt;" style="text;html=1;strokeColor=none;fillColor=none;align=right;verticalAlign=middle;whiteSpace=wrap;rounded=0;" parent="1" vertex="1">
          <mxGeometry x="320" y="140" width="40" height="10" as="geometry" />
        </mxCell>
        <mxCell id="eyw2YwXvaOHmk0R-a-mZ-194" value="&lt;font style=&quot;font-size: 7px;&quot;&gt;IO[0]&lt;/font&gt;" style="text;html=1;strokeColor=none;fillColor=none;align=right;verticalAlign=middle;whiteSpace=wrap;rounded=0;" parent="1" vertex="1">
          <mxGeometry x="320" y="150" width="40" height="10" as="geometry" />
        </mxCell>
        <mxCell id="eyw2YwXvaOHmk0R-a-mZ-195" value="&lt;font style=&quot;font-size: 7px;&quot;&gt;IO[1]&lt;/font&gt;" style="text;html=1;strokeColor=none;fillColor=none;align=right;verticalAlign=middle;whiteSpace=wrap;rounded=0;" parent="1" vertex="1">
          <mxGeometry x="320" y="160" width="40" height="10" as="geometry" />
        </mxCell>
        <mxCell id="eyw2YwXvaOHmk0R-a-mZ-196" value="&lt;font style=&quot;font-size: 7px;&quot;&gt;IO[2]&lt;/font&gt;" style="text;html=1;strokeColor=none;fillColor=none;align=right;verticalAlign=middle;whiteSpace=wrap;rounded=0;" parent="1" vertex="1">
          <mxGeometry x="320" y="170" width="40" height="10" as="geometry" />
        </mxCell>
        <mxCell id="eyw2YwXvaOHmk0R-a-mZ-197" value="&lt;font style=&quot;font-size: 7px;&quot;&gt;IO[3]&lt;/font&gt;" style="text;html=1;strokeColor=none;fillColor=none;align=right;verticalAlign=middle;whiteSpace=wrap;rounded=0;" parent="1" vertex="1">
          <mxGeometry x="320" y="180" width="40" height="10" as="geometry" />
        </mxCell>
        <mxCell id="eyw2YwXvaOHmk0R-a-mZ-198" value="&lt;font style=&quot;font-size: 7px;&quot;&gt;IO[4]&lt;/font&gt;" style="text;html=1;strokeColor=none;fillColor=none;align=right;verticalAlign=middle;whiteSpace=wrap;rounded=0;" parent="1" vertex="1">
          <mxGeometry x="320" y="190" width="40" height="10" as="geometry" />
        </mxCell>
        <mxCell id="eyw2YwXvaOHmk0R-a-mZ-199" value="&lt;font style=&quot;font-size: 7px;&quot;&gt;IO[5]&lt;/font&gt;" style="text;html=1;strokeColor=none;fillColor=none;align=right;verticalAlign=middle;whiteSpace=wrap;rounded=0;" parent="1" vertex="1">
          <mxGeometry x="320" y="200" width="40" height="10" as="geometry" />
        </mxCell>
        <mxCell id="eyw2YwXvaOHmk0R-a-mZ-200" value="&lt;font style=&quot;font-size: 7px;&quot;&gt;IO[6]&lt;/font&gt;" style="text;html=1;strokeColor=none;fillColor=none;align=right;verticalAlign=middle;whiteSpace=wrap;rounded=0;" parent="1" vertex="1">
          <mxGeometry x="320" y="210" width="40" height="10" as="geometry" />
        </mxCell>
        <mxCell id="eyw2YwXvaOHmk0R-a-mZ-201" value="&lt;font style=&quot;font-size: 7px;&quot;&gt;IO[7]&lt;/font&gt;" style="text;html=1;strokeColor=none;fillColor=none;align=right;verticalAlign=middle;whiteSpace=wrap;rounded=0;" parent="1" vertex="1">
          <mxGeometry x="320" y="220" width="40" height="10" as="geometry" />
        </mxCell>
        <mxCell id="eyw2YwXvaOHmk0R-a-mZ-202" value="&lt;font style=&quot;font-size: 7px;&quot;&gt;IO[8]&lt;/font&gt;" style="text;html=1;strokeColor=none;fillColor=none;align=right;verticalAlign=middle;whiteSpace=wrap;rounded=0;" parent="1" vertex="1">
          <mxGeometry x="320" y="230" width="40" height="10" as="geometry" />
        </mxCell>
        <mxCell id="eyw2YwXvaOHmk0R-a-mZ-203" value="&lt;font style=&quot;font-size: 7px;&quot;&gt;IO[9]&lt;/font&gt;" style="text;html=1;strokeColor=none;fillColor=none;align=right;verticalAlign=middle;whiteSpace=wrap;rounded=0;" parent="1" vertex="1">
          <mxGeometry x="320" y="240" width="40" height="10" as="geometry" />
        </mxCell>
        <mxCell id="eyw2YwXvaOHmk0R-a-mZ-204" value="&lt;font style=&quot;font-size: 7px;&quot;&gt;IO[10]&lt;/font&gt;" style="text;html=1;strokeColor=none;fillColor=none;align=right;verticalAlign=middle;whiteSpace=wrap;rounded=0;" parent="1" vertex="1">
          <mxGeometry x="320" y="250" width="40" height="10" as="geometry" />
        </mxCell>
        <mxCell id="eyw2YwXvaOHmk0R-a-mZ-205" value="&lt;font style=&quot;font-size: 7px;&quot;&gt;IO[11]&lt;/font&gt;" style="text;html=1;strokeColor=none;fillColor=none;align=right;verticalAlign=middle;whiteSpace=wrap;rounded=0;" parent="1" vertex="1">
          <mxGeometry x="320" y="260" width="40" height="10" as="geometry" />
        </mxCell>
        <mxCell id="eyw2YwXvaOHmk0R-a-mZ-206" value="&lt;font style=&quot;font-size: 7px;&quot;&gt;IO[12]&lt;/font&gt;" style="text;html=1;strokeColor=none;fillColor=none;align=right;verticalAlign=middle;whiteSpace=wrap;rounded=0;" parent="1" vertex="1">
          <mxGeometry x="320" y="270" width="40" height="10" as="geometry" />
        </mxCell>
        <mxCell id="eyw2YwXvaOHmk0R-a-mZ-207" value="&lt;font style=&quot;font-size: 7px;&quot;&gt;IO[13]&lt;/font&gt;" style="text;html=1;strokeColor=none;fillColor=none;align=right;verticalAlign=middle;whiteSpace=wrap;rounded=0;" parent="1" vertex="1">
          <mxGeometry x="320" y="280" width="40" height="10" as="geometry" />
        </mxCell>
        <mxCell id="eyw2YwXvaOHmk0R-a-mZ-208" value="&lt;font style=&quot;font-size: 7px;&quot;&gt;1V8&lt;/font&gt;" style="text;html=1;strokeColor=none;fillColor=none;align=right;verticalAlign=middle;whiteSpace=wrap;rounded=0;" parent="1" vertex="1">
          <mxGeometry x="320" y="70" width="40" height="10" as="geometry" />
        </mxCell>
        <mxCell id="eyw2YwXvaOHmk0R-a-mZ-209" value="&lt;font style=&quot;font-size: 7px;&quot;&gt;1V8&lt;/font&gt;" style="text;html=1;strokeColor=none;fillColor=none;align=right;verticalAlign=middle;whiteSpace=wrap;rounded=0;" parent="1" vertex="1">
          <mxGeometry x="320" y="80" width="40" height="10" as="geometry" />
        </mxCell>
        <mxCell id="eyw2YwXvaOHmk0R-a-mZ-210" value="&lt;div&gt;&lt;font style=&quot;font-size: 7px;&quot;&gt;vccd2&lt;/font&gt;&lt;/div&gt;" style="text;html=1;strokeColor=none;fillColor=none;align=right;verticalAlign=middle;whiteSpace=wrap;rounded=0;" parent="1" vertex="1">
          <mxGeometry x="320" y="90" width="40" height="10" as="geometry" />
        </mxCell>
        <mxCell id="eyw2YwXvaOHmk0R-a-mZ-211" value="&lt;font style=&quot;font-size: 7px;&quot;&gt;GND&lt;/font&gt;" style="text;html=1;strokeColor=none;fillColor=none;align=left;verticalAlign=middle;whiteSpace=wrap;rounded=0;" parent="1" vertex="1">
          <mxGeometry x="160" y="290" width="40" height="10" as="geometry" />
        </mxCell>
        <mxCell id="eyw2YwXvaOHmk0R-a-mZ-212" value="" style="endArrow=none;html=1;rounded=0;" parent="1" edge="1">
          <mxGeometry width="50" height="50" relative="1" as="geometry">
            <mxPoint x="160" y="34.75999999999999" as="sourcePoint" />
            <mxPoint x="140" y="34.75999999999999" as="targetPoint" />
          </mxGeometry>
        </mxCell>
        <mxCell id="eyw2YwXvaOHmk0R-a-mZ-216" value="" style="endArrow=none;html=1;rounded=0;" parent="1" edge="1">
          <mxGeometry width="50" height="50" relative="1" as="geometry">
            <mxPoint x="160" y="45" as="sourcePoint" />
            <mxPoint x="140" y="45" as="targetPoint" />
          </mxGeometry>
        </mxCell>
        <mxCell id="eyw2YwXvaOHmk0R-a-mZ-217" value="" style="endArrow=none;html=1;rounded=0;" parent="1" edge="1">
          <mxGeometry width="50" height="50" relative="1" as="geometry">
            <mxPoint x="160" y="54.879999999999995" as="sourcePoint" />
            <mxPoint x="140" y="54.879999999999995" as="targetPoint" />
          </mxGeometry>
        </mxCell>
        <mxCell id="eyw2YwXvaOHmk0R-a-mZ-218" value="" style="endArrow=none;html=1;rounded=0;" parent="1" edge="1">
          <mxGeometry width="50" height="50" relative="1" as="geometry">
            <mxPoint x="160" y="65" as="sourcePoint" />
            <mxPoint x="140" y="65" as="targetPoint" />
          </mxGeometry>
        </mxCell>
        <mxCell id="eyw2YwXvaOHmk0R-a-mZ-219" value="" style="endArrow=none;html=1;rounded=0;" parent="1" edge="1">
          <mxGeometry width="50" height="50" relative="1" as="geometry">
            <mxPoint x="160" y="74.88" as="sourcePoint" />
            <mxPoint x="140" y="74.88" as="targetPoint" />
          </mxGeometry>
        </mxCell>
        <mxCell id="eyw2YwXvaOHmk0R-a-mZ-220" value="" style="endArrow=none;html=1;rounded=0;" parent="1" edge="1">
          <mxGeometry width="50" height="50" relative="1" as="geometry">
            <mxPoint x="160" y="85.12" as="sourcePoint" />
            <mxPoint x="140" y="85.12" as="targetPoint" />
          </mxGeometry>
        </mxCell>
        <mxCell id="eyw2YwXvaOHmk0R-a-mZ-221" value="" style="endArrow=none;html=1;rounded=0;" parent="1" edge="1">
          <mxGeometry width="50" height="50" relative="1" as="geometry">
            <mxPoint x="160" y="95" as="sourcePoint" />
            <mxPoint x="140" y="95" as="targetPoint" />
          </mxGeometry>
        </mxCell>
        <mxCell id="eyw2YwXvaOHmk0R-a-mZ-222" value="" style="endArrow=none;html=1;rounded=0;" parent="1" edge="1">
          <mxGeometry width="50" height="50" relative="1" as="geometry">
            <mxPoint x="160" y="105" as="sourcePoint" />
            <mxPoint x="140" y="105" as="targetPoint" />
          </mxGeometry>
        </mxCell>
        <mxCell id="eyw2YwXvaOHmk0R-a-mZ-223" value="" style="endArrow=none;html=1;rounded=0;" parent="1" edge="1">
          <mxGeometry width="50" height="50" relative="1" as="geometry">
            <mxPoint x="160" y="114.88" as="sourcePoint" />
            <mxPoint x="140" y="114.88" as="targetPoint" />
          </mxGeometry>
        </mxCell>
        <mxCell id="eyw2YwXvaOHmk0R-a-mZ-224" value="" style="endArrow=none;html=1;rounded=0;entryX=1;entryY=0.5;entryDx=0;entryDy=0;entryPerimeter=0;" parent="1" target="x0_SZehND5_r6JSviN0u-4" edge="1">
          <mxGeometry width="50" height="50" relative="1" as="geometry">
            <mxPoint x="160" y="125.12" as="sourcePoint" />
            <mxPoint x="140" y="125" as="targetPoint" />
          </mxGeometry>
        </mxCell>
        <mxCell id="eyw2YwXvaOHmk0R-a-mZ-225" value="" style="endArrow=none;html=1;rounded=0;entryX=0;entryY=0.5;entryDx=0;entryDy=0;entryPerimeter=0;" parent="1" target="x0_SZehND5_r6JSviN0u-3" edge="1">
          <mxGeometry width="50" height="50" relative="1" as="geometry">
            <mxPoint x="160" y="135" as="sourcePoint" />
            <mxPoint x="140" y="135" as="targetPoint" />
          </mxGeometry>
        </mxCell>
        <mxCell id="eyw2YwXvaOHmk0R-a-mZ-226" value="" style="endArrow=none;html=1;rounded=0;entryX=1;entryY=0.5;entryDx=0;entryDy=0;entryPerimeter=0;" parent="1" target="x0_SZehND5_r6JSviN0u-2" edge="1">
          <mxGeometry width="50" height="50" relative="1" as="geometry">
            <mxPoint x="160" y="145.12" as="sourcePoint" />
            <mxPoint x="140" y="145" as="targetPoint" />
          </mxGeometry>
        </mxCell>
        <mxCell id="eyw2YwXvaOHmk0R-a-mZ-227" value="" style="endArrow=none;html=1;rounded=0;entryX=1;entryY=0.5;entryDx=0;entryDy=0;entryPerimeter=0;" parent="1" target="x0_SZehND5_r6JSviN0u-1" edge="1">
          <mxGeometry width="50" height="50" relative="1" as="geometry">
            <mxPoint x="160" y="155" as="sourcePoint" />
            <mxPoint x="140" y="155" as="targetPoint" />
          </mxGeometry>
        </mxCell>
        <mxCell id="eyw2YwXvaOHmk0R-a-mZ-228" value="" style="endArrow=none;html=1;rounded=0;entryX=1;entryY=0.5;entryDx=0;entryDy=0;entryPerimeter=0;fillColor=#f8cecc;gradientColor=#ea6b66;strokeColor=#ff0000;" parent="1" target="x0_SZehND5_r6JSviN0u-8" edge="1">
          <mxGeometry width="50" height="50" relative="1" as="geometry">
            <mxPoint x="160" y="165.24" as="sourcePoint" />
            <mxPoint x="140" y="165.24" as="targetPoint" />
          </mxGeometry>
        </mxCell>
        <mxCell id="eyw2YwXvaOHmk0R-a-mZ-229" value="" style="endArrow=none;html=1;rounded=0;entryX=1;entryY=0.5;entryDx=0;entryDy=0;entryPerimeter=0;fillColor=#f8cecc;gradientColor=#ea6b66;strokeColor=#ff0000;" parent="1" target="x0_SZehND5_r6JSviN0u-7" edge="1">
          <mxGeometry width="50" height="50" relative="1" as="geometry">
            <mxPoint x="160" y="175.12" as="sourcePoint" />
            <mxPoint x="140" y="175.12" as="targetPoint" />
          </mxGeometry>
        </mxCell>
        <mxCell id="eyw2YwXvaOHmk0R-a-mZ-230" value="" style="endArrow=none;html=1;rounded=0;entryX=1;entryY=0.5;entryDx=0;entryDy=0;entryPerimeter=0;fillColor=#f8cecc;gradientColor=#ea6b66;strokeColor=#ff0000;" parent="1" target="x0_SZehND5_r6JSviN0u-6" edge="1">
          <mxGeometry width="50" height="50" relative="1" as="geometry">
            <mxPoint x="160" y="185" as="sourcePoint" />
            <mxPoint x="140" y="185" as="targetPoint" />
          </mxGeometry>
        </mxCell>
        <mxCell id="eyw2YwXvaOHmk0R-a-mZ-231" value="" style="endArrow=none;html=1;rounded=0;entryX=1;entryY=0.5;entryDx=0;entryDy=0;entryPerimeter=0;fillColor=#f8cecc;gradientColor=#ea6b66;strokeColor=#ff0000;" parent="1" target="x0_SZehND5_r6JSviN0u-5" edge="1">
          <mxGeometry width="50" height="50" relative="1" as="geometry">
            <mxPoint x="160" y="194.88" as="sourcePoint" />
            <mxPoint x="140" y="194.88" as="targetPoint" />
          </mxGeometry>
        </mxCell>
        <mxCell id="eyw2YwXvaOHmk0R-a-mZ-233" value="" style="endArrow=none;html=1;rounded=0;" parent="1" edge="1">
          <mxGeometry width="50" height="50" relative="1" as="geometry">
            <mxPoint x="160" y="215" as="sourcePoint" />
            <mxPoint x="140" y="215" as="targetPoint" />
          </mxGeometry>
        </mxCell>
        <mxCell id="eyw2YwXvaOHmk0R-a-mZ-234" value="" style="endArrow=none;html=1;rounded=0;" parent="1" edge="1">
          <mxGeometry width="50" height="50" relative="1" as="geometry">
            <mxPoint x="160" y="225.12" as="sourcePoint" />
            <mxPoint x="140" y="225.12" as="targetPoint" />
          </mxGeometry>
        </mxCell>
        <mxCell id="eyw2YwXvaOHmk0R-a-mZ-235" value="" style="endArrow=none;html=1;rounded=0;" parent="1" edge="1">
          <mxGeometry width="50" height="50" relative="1" as="geometry">
            <mxPoint x="160" y="235" as="sourcePoint" />
            <mxPoint x="140" y="235" as="targetPoint" />
          </mxGeometry>
        </mxCell>
        <mxCell id="eyw2YwXvaOHmk0R-a-mZ-236" value="" style="endArrow=none;html=1;rounded=0;" parent="1" edge="1">
          <mxGeometry width="50" height="50" relative="1" as="geometry">
            <mxPoint x="160" y="245.24" as="sourcePoint" />
            <mxPoint x="140" y="245.24" as="targetPoint" />
          </mxGeometry>
        </mxCell>
        <mxCell id="eyw2YwXvaOHmk0R-a-mZ-237" value="" style="endArrow=none;html=1;rounded=0;entryX=1;entryY=0.5;entryDx=0;entryDy=0;entryPerimeter=0;" parent="1" target="s9okOD3CWAa4yVyvhVGe-2" edge="1">
          <mxGeometry width="50" height="50" relative="1" as="geometry">
            <mxPoint x="160" y="255.12" as="sourcePoint" />
            <mxPoint x="140" y="255.12" as="targetPoint" />
          </mxGeometry>
        </mxCell>
        <mxCell id="eyw2YwXvaOHmk0R-a-mZ-238" value="" style="endArrow=none;html=1;rounded=0;entryX=1;entryY=0.5;entryDx=0;entryDy=0;entryPerimeter=0;" parent="1" target="s9okOD3CWAa4yVyvhVGe-1" edge="1">
          <mxGeometry width="50" height="50" relative="1" as="geometry">
            <mxPoint x="160" y="265" as="sourcePoint" />
            <mxPoint x="140" y="265" as="targetPoint" />
          </mxGeometry>
        </mxCell>
        <mxCell id="eyw2YwXvaOHmk0R-a-mZ-239" value="" style="endArrow=none;html=1;rounded=0;" parent="1" edge="1">
          <mxGeometry width="50" height="50" relative="1" as="geometry">
            <mxPoint x="160" y="274.88" as="sourcePoint" />
            <mxPoint x="140" y="274.88" as="targetPoint" />
          </mxGeometry>
        </mxCell>
        <mxCell id="eyw2YwXvaOHmk0R-a-mZ-240" value="" style="endArrow=none;html=1;rounded=0;" parent="1" edge="1">
          <mxGeometry width="50" height="50" relative="1" as="geometry">
            <mxPoint x="160" y="285.12" as="sourcePoint" />
            <mxPoint x="140" y="285.12" as="targetPoint" />
          </mxGeometry>
        </mxCell>
        <mxCell id="eyw2YwXvaOHmk0R-a-mZ-241" value="" style="endArrow=none;html=1;rounded=0;" parent="1" edge="1">
          <mxGeometry width="50" height="50" relative="1" as="geometry">
            <mxPoint x="160" y="295" as="sourcePoint" />
            <mxPoint x="140" y="295" as="targetPoint" />
          </mxGeometry>
        </mxCell>
        <mxCell id="eyw2YwXvaOHmk0R-a-mZ-246" value="&lt;font style=&quot;font-size: 7px;&quot;&gt;GND&lt;/font&gt;" style="text;html=1;strokeColor=none;fillColor=none;align=right;verticalAlign=middle;whiteSpace=wrap;rounded=0;" parent="1" vertex="1">
          <mxGeometry x="320" y="290" width="40" height="10" as="geometry" />
        </mxCell>
        <mxCell id="eyw2YwXvaOHmk0R-a-mZ-247" value="" style="endArrow=none;html=1;rounded=0;" parent="1" edge="1">
          <mxGeometry width="50" height="50" relative="1" as="geometry">
            <mxPoint x="380" y="24.69999999999999" as="sourcePoint" />
            <mxPoint x="360" y="24.69999999999999" as="targetPoint" />
          </mxGeometry>
        </mxCell>
        <mxCell id="eyw2YwXvaOHmk0R-a-mZ-248" value="" style="endArrow=none;html=1;rounded=0;exitX=0.5;exitY=0;exitDx=0;exitDy=0;exitPerimeter=0;" parent="1" edge="1" source="Cdjs30osqwjPSGUu_mH4-3">
          <mxGeometry width="50" height="50" relative="1" as="geometry">
            <mxPoint x="420" y="35" as="sourcePoint" />
            <mxPoint x="360" y="34.579999999999984" as="targetPoint" />
            <Array as="points">
              <mxPoint x="420" y="35" />
            </Array>
          </mxGeometry>
        </mxCell>
        <mxCell id="eyw2YwXvaOHmk0R-a-mZ-249" value="" style="endArrow=none;html=1;rounded=0;" parent="1" edge="1">
          <mxGeometry width="50" height="50" relative="1" as="geometry">
            <mxPoint x="380" y="44.81999999999999" as="sourcePoint" />
            <mxPoint x="360" y="44.81999999999999" as="targetPoint" />
          </mxGeometry>
        </mxCell>
        <mxCell id="eyw2YwXvaOHmk0R-a-mZ-250" value="" style="endArrow=none;html=1;rounded=0;" parent="1" edge="1">
          <mxGeometry width="50" height="50" relative="1" as="geometry">
            <mxPoint x="380" y="54.69999999999999" as="sourcePoint" />
            <mxPoint x="360" y="54.69999999999999" as="targetPoint" />
          </mxGeometry>
        </mxCell>
        <mxCell id="eyw2YwXvaOHmk0R-a-mZ-251" value="" style="endArrow=none;html=1;rounded=0;" parent="1" edge="1">
          <mxGeometry width="50" height="50" relative="1" as="geometry">
            <mxPoint x="380" y="64.82" as="sourcePoint" />
            <mxPoint x="360" y="64.82" as="targetPoint" />
          </mxGeometry>
        </mxCell>
        <mxCell id="eyw2YwXvaOHmk0R-a-mZ-252" value="" style="endArrow=none;html=1;rounded=0;" parent="1" edge="1">
          <mxGeometry width="50" height="50" relative="1" as="geometry">
            <mxPoint x="380" y="74.69999999999999" as="sourcePoint" />
            <mxPoint x="360" y="74.69999999999999" as="targetPoint" />
          </mxGeometry>
        </mxCell>
        <mxCell id="eyw2YwXvaOHmk0R-a-mZ-253" value="" style="endArrow=none;html=1;rounded=0;" parent="1" edge="1">
          <mxGeometry width="50" height="50" relative="1" as="geometry">
            <mxPoint x="380" y="84.94" as="sourcePoint" />
            <mxPoint x="360" y="84.94" as="targetPoint" />
          </mxGeometry>
        </mxCell>
        <mxCell id="eyw2YwXvaOHmk0R-a-mZ-254" value="" style="endArrow=none;html=1;rounded=0;" parent="1" edge="1">
          <mxGeometry width="50" height="50" relative="1" as="geometry">
            <mxPoint x="380" y="94.82" as="sourcePoint" />
            <mxPoint x="360" y="94.82" as="targetPoint" />
          </mxGeometry>
        </mxCell>
        <mxCell id="eyw2YwXvaOHmk0R-a-mZ-255" value="" style="endArrow=none;html=1;rounded=0;" parent="1" edge="1">
          <mxGeometry width="50" height="50" relative="1" as="geometry">
            <mxPoint x="380" y="104.82" as="sourcePoint" />
            <mxPoint x="360" y="104.82" as="targetPoint" />
          </mxGeometry>
        </mxCell>
        <mxCell id="eyw2YwXvaOHmk0R-a-mZ-256" value="" style="endArrow=none;html=1;rounded=0;" parent="1" edge="1">
          <mxGeometry width="50" height="50" relative="1" as="geometry">
            <mxPoint x="380" y="114.69999999999999" as="sourcePoint" />
            <mxPoint x="360" y="114.69999999999999" as="targetPoint" />
          </mxGeometry>
        </mxCell>
        <mxCell id="eyw2YwXvaOHmk0R-a-mZ-257" value="" style="endArrow=none;html=1;rounded=0;" parent="1" edge="1">
          <mxGeometry width="50" height="50" relative="1" as="geometry">
            <mxPoint x="380" y="124.94" as="sourcePoint" />
            <mxPoint x="360" y="124.94" as="targetPoint" />
          </mxGeometry>
        </mxCell>
        <mxCell id="eyw2YwXvaOHmk0R-a-mZ-258" value="" style="endArrow=none;html=1;rounded=0;" parent="1" edge="1">
          <mxGeometry width="50" height="50" relative="1" as="geometry">
            <mxPoint x="380" y="134.82" as="sourcePoint" />
            <mxPoint x="360" y="134.82" as="targetPoint" />
          </mxGeometry>
        </mxCell>
        <mxCell id="eyw2YwXvaOHmk0R-a-mZ-259" value="" style="endArrow=none;html=1;rounded=0;" parent="1" edge="1">
          <mxGeometry width="50" height="50" relative="1" as="geometry">
            <mxPoint x="380" y="144.94" as="sourcePoint" />
            <mxPoint x="360" y="144.94" as="targetPoint" />
          </mxGeometry>
        </mxCell>
        <mxCell id="eyw2YwXvaOHmk0R-a-mZ-260" value="" style="endArrow=none;html=1;rounded=0;" parent="1" edge="1">
          <mxGeometry width="50" height="50" relative="1" as="geometry">
            <mxPoint x="380" y="154.82" as="sourcePoint" />
            <mxPoint x="360" y="154.82" as="targetPoint" />
          </mxGeometry>
        </mxCell>
        <mxCell id="eyw2YwXvaOHmk0R-a-mZ-261" value="" style="endArrow=none;html=1;rounded=0;" parent="1" edge="1">
          <mxGeometry width="50" height="50" relative="1" as="geometry">
            <mxPoint x="380" y="165.06" as="sourcePoint" />
            <mxPoint x="360" y="165.06" as="targetPoint" />
          </mxGeometry>
        </mxCell>
        <mxCell id="eyw2YwXvaOHmk0R-a-mZ-262" value="" style="endArrow=none;html=1;rounded=0;" parent="1" edge="1">
          <mxGeometry width="50" height="50" relative="1" as="geometry">
            <mxPoint x="380" y="174.94" as="sourcePoint" />
            <mxPoint x="360" y="174.94" as="targetPoint" />
          </mxGeometry>
        </mxCell>
        <mxCell id="eyw2YwXvaOHmk0R-a-mZ-263" value="" style="endArrow=none;html=1;rounded=0;" parent="1" edge="1">
          <mxGeometry width="50" height="50" relative="1" as="geometry">
            <mxPoint x="380" y="184.82" as="sourcePoint" />
            <mxPoint x="360" y="184.82" as="targetPoint" />
          </mxGeometry>
        </mxCell>
        <mxCell id="eyw2YwXvaOHmk0R-a-mZ-264" value="" style="endArrow=none;html=1;rounded=0;" parent="1" edge="1">
          <mxGeometry width="50" height="50" relative="1" as="geometry">
            <mxPoint x="380" y="194.7" as="sourcePoint" />
            <mxPoint x="360" y="194.7" as="targetPoint" />
          </mxGeometry>
        </mxCell>
        <mxCell id="eyw2YwXvaOHmk0R-a-mZ-265" value="" style="endArrow=none;html=1;rounded=0;" parent="1" edge="1">
          <mxGeometry width="50" height="50" relative="1" as="geometry">
            <mxPoint x="380" y="204.94" as="sourcePoint" />
            <mxPoint x="360" y="204.94" as="targetPoint" />
          </mxGeometry>
        </mxCell>
        <mxCell id="eyw2YwXvaOHmk0R-a-mZ-266" value="" style="endArrow=none;html=1;rounded=0;" parent="1" edge="1">
          <mxGeometry width="50" height="50" relative="1" as="geometry">
            <mxPoint x="380" y="214.82" as="sourcePoint" />
            <mxPoint x="360" y="214.82" as="targetPoint" />
          </mxGeometry>
        </mxCell>
        <mxCell id="eyw2YwXvaOHmk0R-a-mZ-267" value="" style="endArrow=none;html=1;rounded=0;" parent="1" edge="1">
          <mxGeometry width="50" height="50" relative="1" as="geometry">
            <mxPoint x="380" y="224.94" as="sourcePoint" />
            <mxPoint x="360" y="224.94" as="targetPoint" />
          </mxGeometry>
        </mxCell>
        <mxCell id="eyw2YwXvaOHmk0R-a-mZ-271" value="" style="endArrow=none;html=1;rounded=0;exitX=1;exitY=0.5;exitDx=0;exitDy=0;exitPerimeter=0;" parent="1" source="x0_SZehND5_r6JSviN0u-24" edge="1">
          <mxGeometry width="50" height="50" relative="1" as="geometry">
            <mxPoint x="380" y="264.82" as="sourcePoint" />
            <mxPoint x="360" y="264.82" as="targetPoint" />
          </mxGeometry>
        </mxCell>
        <mxCell id="eyw2YwXvaOHmk0R-a-mZ-272" value="" style="endArrow=none;html=1;rounded=0;exitX=1;exitY=0.5;exitDx=0;exitDy=0;exitPerimeter=0;" parent="1" source="x0_SZehND5_r6JSviN0u-23" edge="1">
          <mxGeometry width="50" height="50" relative="1" as="geometry">
            <mxPoint x="380" y="275" as="sourcePoint" />
            <mxPoint x="360" y="274.7" as="targetPoint" />
          </mxGeometry>
        </mxCell>
        <mxCell id="eyw2YwXvaOHmk0R-a-mZ-273" value="" style="endArrow=none;html=1;rounded=0;" parent="1" edge="1">
          <mxGeometry width="50" height="50" relative="1" as="geometry">
            <mxPoint x="380" y="284.94" as="sourcePoint" />
            <mxPoint x="360" y="284.94" as="targetPoint" />
          </mxGeometry>
        </mxCell>
        <mxCell id="eyw2YwXvaOHmk0R-a-mZ-274" value="" style="endArrow=none;html=1;rounded=0;" parent="1" edge="1">
          <mxGeometry width="50" height="50" relative="1" as="geometry">
            <mxPoint x="400" y="295" as="sourcePoint" />
            <mxPoint x="360" y="294.82" as="targetPoint" />
          </mxGeometry>
        </mxCell>
        <mxCell id="x0_SZehND5_r6JSviN0u-1" value="GPIO_OUT[0]" style="html=1;shadow=0;dashed=0;align=left;verticalAlign=middle;shape=mxgraph.arrows2.arrow;dy=0;dx=10;notch=0;fillColor=#ffe6cc;strokeColor=#d79b00;fontSize=7;flipH=0;labelPosition=center;verticalLabelPosition=middle;" parent="1" vertex="1">
          <mxGeometry x="40" y="151" width="80" height="8" as="geometry" />
        </mxCell>
        <mxCell id="x0_SZehND5_r6JSviN0u-2" value="GPIO_OUT[1]" style="html=1;shadow=0;dashed=0;align=left;verticalAlign=middle;shape=mxgraph.arrows2.arrow;dy=0;dx=10;notch=0;fillColor=#ffe6cc;strokeColor=#d79b00;fontSize=7;flipH=0;labelPosition=center;verticalLabelPosition=middle;" parent="1" vertex="1">
          <mxGeometry x="40" y="141" width="80" height="8" as="geometry" />
        </mxCell>
        <mxCell id="x0_SZehND5_r6JSviN0u-3" value="GPIO_OUT[2]" style="html=1;shadow=0;dashed=0;align=left;verticalAlign=middle;shape=mxgraph.arrows2.arrow;dy=0;dx=10;notch=0;fillColor=#ffe6cc;strokeColor=#d79b00;fontSize=7;flipH=0;labelPosition=center;verticalLabelPosition=middle;" parent="1" vertex="1">
          <mxGeometry x="40" y="131" width="80" height="8" as="geometry" />
        </mxCell>
        <mxCell id="x0_SZehND5_r6JSviN0u-4" value="GPIO_OUT[3]" style="html=1;shadow=0;dashed=0;align=left;verticalAlign=middle;shape=mxgraph.arrows2.arrow;dy=0;dx=10;notch=0;fillColor=#ffe6cc;strokeColor=#d79b00;fontSize=7;flipH=0;labelPosition=center;verticalLabelPosition=middle;" parent="1" vertex="1">
          <mxGeometry x="40" y="121" width="80" height="8" as="geometry" />
        </mxCell>
        <mxCell id="x0_SZehND5_r6JSviN0u-5" value="PGM_SEL_SW[1]" style="html=1;shadow=0;dashed=0;align=left;verticalAlign=middle;shape=mxgraph.arrows2.arrow;dy=0;dx=10;notch=0;fillColor=#ffe6cc;strokeColor=#d79b00;fontSize=7;flipH=0;labelPosition=center;verticalLabelPosition=middle;" parent="1" vertex="1">
          <mxGeometry x="40" y="191" width="80" height="8" as="geometry" />
        </mxCell>
        <mxCell id="x0_SZehND5_r6JSviN0u-6" value="RST_SYNC" style="html=1;shadow=0;dashed=0;align=left;verticalAlign=middle;shape=mxgraph.arrows2.arrow;dy=0;dx=10;notch=0;fillColor=#ffe6cc;strokeColor=#d79b00;fontSize=7;flipH=0;labelPosition=center;verticalLabelPosition=middle;" parent="1" vertex="1">
          <mxGeometry x="40" y="181" width="80" height="8" as="geometry" />
        </mxCell>
        <mxCell id="x0_SZehND5_r6JSviN0u-7" value="PGM_SEL_SYNC[0]" style="html=1;shadow=0;dashed=0;align=left;verticalAlign=middle;shape=mxgraph.arrows2.arrow;dy=0;dx=10;notch=0;fillColor=#ffe6cc;strokeColor=#d79b00;fontSize=7;flipH=0;labelPosition=center;verticalLabelPosition=middle;" parent="1" vertex="1">
          <mxGeometry x="40" y="171" width="80" height="8" as="geometry" />
        </mxCell>
        <mxCell id="x0_SZehND5_r6JSviN0u-8" value="PGM_SEL_SYNC[1]" style="html=1;shadow=0;dashed=0;align=left;verticalAlign=middle;shape=mxgraph.arrows2.arrow;dy=0;dx=10;notch=0;fillColor=#ffe6cc;strokeColor=#d79b00;fontSize=7;flipH=0;labelPosition=center;verticalLabelPosition=middle;" parent="1" vertex="1">
          <mxGeometry x="40" y="161" width="80" height="8" as="geometry" />
        </mxCell>
        <mxCell id="x0_SZehND5_r6JSviN0u-9" value="" style="endArrow=none;html=1;rounded=0;entryX=1;entryY=0.5;entryDx=0;entryDy=0;entryPerimeter=0;fillColor=#f8cecc;gradientColor=#ea6b66;strokeColor=#ff0000;" parent="1" target="x0_SZehND5_r6JSviN0u-10" edge="1">
          <mxGeometry width="50" height="50" relative="1" as="geometry">
            <mxPoint x="160" y="204.88" as="sourcePoint" />
            <mxPoint x="140" y="204.88" as="targetPoint" />
          </mxGeometry>
        </mxCell>
        <mxCell id="x0_SZehND5_r6JSviN0u-10" value="PGM_SEL_SW[0]" style="html=1;shadow=0;dashed=0;align=left;verticalAlign=middle;shape=mxgraph.arrows2.arrow;dy=0;dx=10;notch=0;fillColor=#ffe6cc;strokeColor=#d79b00;fontSize=7;flipH=0;labelPosition=center;verticalLabelPosition=middle;" parent="1" vertex="1">
          <mxGeometry x="40" y="201" width="80" height="8" as="geometry" />
        </mxCell>
        <mxCell id="x0_SZehND5_r6JSviN0u-17" value="PGM_SEL_SYNC[1]" style="html=1;shadow=0;dashed=0;align=right;verticalAlign=middle;shape=mxgraph.arrows2.arrow;dy=0;dx=10;notch=0;fillColor=#ffe6cc;strokeColor=#d79b00;fontSize=7;flipH=1;labelPosition=center;verticalLabelPosition=middle;" parent="1" vertex="1">
          <mxGeometry x="400" y="251" width="80" height="8" as="geometry" />
        </mxCell>
        <mxCell id="x0_SZehND5_r6JSviN0u-18" value="PGM_SEL_SYNC[0]" style="html=1;shadow=0;dashed=0;align=right;verticalAlign=middle;shape=mxgraph.arrows2.arrow;dy=0;dx=10;notch=0;fillColor=#ffe6cc;strokeColor=#d79b00;fontSize=7;flipH=1;labelPosition=center;verticalLabelPosition=middle;" parent="1" vertex="1">
          <mxGeometry x="400" y="241" width="80" height="8" as="geometry" />
        </mxCell>
        <mxCell id="x0_SZehND5_r6JSviN0u-19" value="RST_SYNC" style="html=1;shadow=0;dashed=0;align=right;verticalAlign=middle;shape=mxgraph.arrows2.arrow;dy=0;dx=10;notch=0;fillColor=#ffe6cc;strokeColor=#d79b00;fontSize=7;flipH=1;labelPosition=center;verticalLabelPosition=middle;" parent="1" vertex="1">
          <mxGeometry x="400" y="231" width="80" height="8" as="geometry" />
        </mxCell>
        <mxCell id="x0_SZehND5_r6JSviN0u-20" value="" style="endArrow=none;html=1;rounded=0;entryX=1;entryY=0.5;entryDx=0;entryDy=0;entryPerimeter=0;fillColor=#f8cecc;gradientColor=#ea6b66;strokeColor=#ff0000;" parent="1" edge="1">
          <mxGeometry width="50" height="50" relative="1" as="geometry">
            <mxPoint x="400" y="235" as="sourcePoint" />
            <mxPoint x="360" y="234.76" as="targetPoint" />
          </mxGeometry>
        </mxCell>
        <mxCell id="x0_SZehND5_r6JSviN0u-21" value="" style="endArrow=none;html=1;rounded=0;entryX=1;entryY=0.5;entryDx=0;entryDy=0;entryPerimeter=0;fillColor=#f8cecc;gradientColor=#ea6b66;strokeColor=#ff0000;" parent="1" edge="1">
          <mxGeometry width="50" height="50" relative="1" as="geometry">
            <mxPoint x="400" y="244.88" as="sourcePoint" />
            <mxPoint x="360" y="244.76" as="targetPoint" />
          </mxGeometry>
        </mxCell>
        <mxCell id="x0_SZehND5_r6JSviN0u-22" value="" style="endArrow=none;html=1;rounded=0;entryX=1;entryY=0.5;entryDx=0;entryDy=0;entryPerimeter=0;fillColor=#f8cecc;gradientColor=#ea6b66;strokeColor=#ff0000;" parent="1" edge="1">
          <mxGeometry width="50" height="50" relative="1" as="geometry">
            <mxPoint x="400" y="254.76" as="sourcePoint" />
            <mxPoint x="360" y="254.76" as="targetPoint" />
          </mxGeometry>
        </mxCell>
        <mxCell id="x0_SZehND5_r6JSviN0u-23" value="UART_TX" style="html=1;shadow=0;dashed=0;align=right;verticalAlign=middle;shape=mxgraph.arrows2.arrow;dy=0;dx=10;notch=0;fillColor=#ffe6cc;strokeColor=#d79b00;fontSize=7;flipH=1;labelPosition=center;verticalLabelPosition=middle;" parent="1" vertex="1">
          <mxGeometry x="400" y="271" width="80" height="8" as="geometry" />
        </mxCell>
        <mxCell id="x0_SZehND5_r6JSviN0u-24" value="UART_RX" style="html=1;shadow=0;dashed=0;align=right;verticalAlign=middle;shape=mxgraph.arrows2.arrow;dy=0;dx=10;notch=0;fillColor=#ffe6cc;strokeColor=#d79b00;fontSize=7;flipH=1;labelPosition=center;verticalLabelPosition=middle;" parent="1" vertex="1">
          <mxGeometry x="400" y="261" width="80" height="8" as="geometry" />
        </mxCell>
        <mxCell id="p33CgT6eAGISMrEgqVGi-9" style="edgeStyle=orthogonalEdgeStyle;rounded=0;orthogonalLoop=1;jettySize=auto;html=1;exitX=1;exitY=0.5;exitDx=0;exitDy=0;exitPerimeter=0;entryX=0.006;entryY=0.554;entryDx=0;entryDy=0;entryPerimeter=0;endArrow=none;endFill=0;strokeColor=#ff0000;" parent="1" source="x0_SZehND5_r6JSviN0u-25" target="p33CgT6eAGISMrEgqVGi-1" edge="1">
          <mxGeometry relative="1" as="geometry" />
        </mxCell>
        <mxCell id="x0_SZehND5_r6JSviN0u-25" value="PGM_SEL_SW[1]" style="html=1;shadow=0;dashed=0;align=right;verticalAlign=middle;shape=mxgraph.arrows2.arrow;dy=0;dx=10;notch=0;fillColor=#ffe6cc;strokeColor=#d79b00;fontSize=7;flipH=1;labelPosition=center;verticalLabelPosition=middle;" parent="1" vertex="1">
          <mxGeometry x="615" y="56" width="80" height="8" as="geometry" />
        </mxCell>
        <mxCell id="x0_SZehND5_r6JSviN0u-26" value="PGM_SEL_SW[0]" style="html=1;shadow=0;dashed=0;align=right;verticalAlign=middle;shape=mxgraph.arrows2.arrow;dy=0;dx=10;notch=0;fillColor=#ffe6cc;strokeColor=#d79b00;fontSize=7;flipH=1;labelPosition=center;verticalLabelPosition=middle;" parent="1" vertex="1">
          <mxGeometry x="615" y="116.02999999999997" width="80" height="8" as="geometry" />
        </mxCell>
        <mxCell id="p33CgT6eAGISMrEgqVGi-1" value="" style="html=1;shape=mxgraph.electrical.electro-mechanical.twoWaySwitch;aspect=fixed;elSwitchState=2;flipH=1;strokeColor=#ff0000;fontColor=#ff0000;" parent="1" vertex="1">
          <mxGeometry x="566" y="55" width="29" height="10.05" as="geometry" />
        </mxCell>
        <mxCell id="p33CgT6eAGISMrEgqVGi-7" style="edgeStyle=orthogonalEdgeStyle;rounded=0;orthogonalLoop=1;jettySize=auto;html=1;exitX=0.5;exitY=0;exitDx=0;exitDy=0;exitPerimeter=0;startArrow=none;startFill=0;endArrow=none;endFill=0;entryX=1.001;entryY=0.12;entryDx=0;entryDy=0;entryPerimeter=0;strokeColor=#ff0000;fontColor=#ff0000;" parent="1" source="p33CgT6eAGISMrEgqVGi-2" target="p33CgT6eAGISMrEgqVGi-1" edge="1">
          <mxGeometry relative="1" as="geometry">
            <mxPoint x="547" y="65" as="targetPoint" />
            <Array as="points">
              <mxPoint x="547" y="56" />
            </Array>
          </mxGeometry>
        </mxCell>
        <mxCell id="p33CgT6eAGISMrEgqVGi-2" value="&lt;div align=&quot;center&quot; style=&quot;font-size: 6px;&quot;&gt;&lt;font style=&quot;font-size: 6px;&quot;&gt;V&lt;sub style=&quot;font-size: 6px;&quot;&gt;dd&lt;/sub&gt;&lt;/font&gt;&lt;/div&gt;" style="verticalLabelPosition=top;verticalAlign=bottom;shape=mxgraph.electrical.signal_sources.vdd;shadow=0;dashed=0;align=center;strokeWidth=1;fontSize=6;html=1;flipV=1;strokeColor=#ff0000;fontColor=#ff0000;" parent="1" vertex="1">
          <mxGeometry x="540" y="40" width="14" height="10" as="geometry" />
        </mxCell>
        <mxCell id="p33CgT6eAGISMrEgqVGi-6" value="" style="pointerEvents=1;verticalLabelPosition=bottom;shadow=0;dashed=0;align=center;html=1;verticalAlign=top;shape=mxgraph.electrical.signal_sources.signal_ground;strokeColor=#ff0000;fontColor=#ff0000;" parent="1" vertex="1">
          <mxGeometry x="540" y="70" width="14" height="10" as="geometry" />
        </mxCell>
        <mxCell id="p33CgT6eAGISMrEgqVGi-8" style="edgeStyle=orthogonalEdgeStyle;rounded=0;orthogonalLoop=1;jettySize=auto;html=1;exitX=0.5;exitY=0;exitDx=0;exitDy=0;exitPerimeter=0;startArrow=none;startFill=0;endArrow=none;endFill=0;entryX=0.955;entryY=0.878;entryDx=0;entryDy=0;entryPerimeter=0;strokeColor=#ff0000;fontColor=#ff0000;" parent="1" target="p33CgT6eAGISMrEgqVGi-1" edge="1">
          <mxGeometry relative="1" as="geometry">
            <mxPoint x="566" y="64" as="targetPoint" />
            <mxPoint x="547" y="70" as="sourcePoint" />
            <Array as="points">
              <mxPoint x="547" y="64" />
            </Array>
          </mxGeometry>
        </mxCell>
        <mxCell id="p33CgT6eAGISMrEgqVGi-10" style="edgeStyle=orthogonalEdgeStyle;rounded=0;orthogonalLoop=1;jettySize=auto;html=1;exitX=1;exitY=0.5;exitDx=0;exitDy=0;exitPerimeter=0;entryX=0.006;entryY=0.554;entryDx=0;entryDy=0;entryPerimeter=0;endArrow=none;endFill=0;strokeColor=#ff0000;" parent="1" target="p33CgT6eAGISMrEgqVGi-11" edge="1">
          <mxGeometry relative="1" as="geometry">
            <mxPoint x="615" y="120" as="sourcePoint" />
          </mxGeometry>
        </mxCell>
        <mxCell id="p33CgT6eAGISMrEgqVGi-11" value="" style="html=1;shape=mxgraph.electrical.electro-mechanical.twoWaySwitch;aspect=fixed;elSwitchState=2;flipH=1;strokeColor=#ff0000;fontColor=#ff0000;" parent="1" vertex="1">
          <mxGeometry x="566" y="115" width="29" height="10.05" as="geometry" />
        </mxCell>
        <mxCell id="p33CgT6eAGISMrEgqVGi-12" style="edgeStyle=orthogonalEdgeStyle;rounded=0;orthogonalLoop=1;jettySize=auto;html=1;exitX=0.5;exitY=0;exitDx=0;exitDy=0;exitPerimeter=0;startArrow=none;startFill=0;endArrow=none;endFill=0;entryX=1.001;entryY=0.12;entryDx=0;entryDy=0;entryPerimeter=0;strokeColor=#ff0000;fontColor=#ff0000;" parent="1" source="p33CgT6eAGISMrEgqVGi-13" target="p33CgT6eAGISMrEgqVGi-11" edge="1">
          <mxGeometry relative="1" as="geometry">
            <mxPoint x="547" y="125" as="targetPoint" />
            <Array as="points">
              <mxPoint x="547" y="116" />
            </Array>
          </mxGeometry>
        </mxCell>
        <mxCell id="p33CgT6eAGISMrEgqVGi-13" value="&lt;div align=&quot;center&quot; style=&quot;font-size: 6px;&quot;&gt;&lt;font style=&quot;font-size: 6px;&quot;&gt;V&lt;sub style=&quot;font-size: 6px;&quot;&gt;dd&lt;/sub&gt;&lt;/font&gt;&lt;/div&gt;" style="verticalLabelPosition=top;verticalAlign=bottom;shape=mxgraph.electrical.signal_sources.vdd;shadow=0;dashed=0;align=center;strokeWidth=1;fontSize=6;html=1;flipV=1;strokeColor=#ff0000;fontColor=#ff0000;" parent="1" vertex="1">
          <mxGeometry x="540" y="100" width="14" height="10" as="geometry" />
        </mxCell>
        <mxCell id="p33CgT6eAGISMrEgqVGi-14" value="" style="pointerEvents=1;verticalLabelPosition=bottom;shadow=0;dashed=0;align=center;html=1;verticalAlign=top;shape=mxgraph.electrical.signal_sources.signal_ground;strokeColor=#ff0000;fontColor=#ff0000;" parent="1" vertex="1">
          <mxGeometry x="540" y="130" width="14" height="10" as="geometry" />
        </mxCell>
        <mxCell id="p33CgT6eAGISMrEgqVGi-15" style="edgeStyle=orthogonalEdgeStyle;rounded=0;orthogonalLoop=1;jettySize=auto;html=1;exitX=0.5;exitY=0;exitDx=0;exitDy=0;exitPerimeter=0;startArrow=none;startFill=0;endArrow=none;endFill=0;entryX=0.955;entryY=0.878;entryDx=0;entryDy=0;entryPerimeter=0;strokeColor=#ff0000;fontColor=#ff0000;" parent="1" target="p33CgT6eAGISMrEgqVGi-11" edge="1">
          <mxGeometry relative="1" as="geometry">
            <mxPoint x="566" y="124" as="targetPoint" />
            <mxPoint x="547" y="130" as="sourcePoint" />
            <Array as="points">
              <mxPoint x="547" y="124" />
            </Array>
          </mxGeometry>
        </mxCell>
        <mxCell id="p33CgT6eAGISMrEgqVGi-21" style="edgeStyle=orthogonalEdgeStyle;rounded=0;orthogonalLoop=1;jettySize=auto;html=1;exitX=1;exitY=0.57;exitDx=0;exitDy=0;exitPerimeter=0;entryX=0.5;entryY=0;entryDx=0;entryDy=0;entryPerimeter=0;endArrow=none;endFill=0;" parent="1" source="p33CgT6eAGISMrEgqVGi-16" target="p33CgT6eAGISMrEgqVGi-20" edge="1">
          <mxGeometry relative="1" as="geometry" />
        </mxCell>
        <mxCell id="p33CgT6eAGISMrEgqVGi-16" value="" style="verticalLabelPosition=bottom;shadow=0;dashed=0;align=center;html=1;verticalAlign=top;shape=mxgraph.electrical.opto_electronics.led_2;pointerEvents=1;" parent="1" vertex="1">
          <mxGeometry x="886" y="34" width="20" height="10" as="geometry" />
        </mxCell>
        <mxCell id="p33CgT6eAGISMrEgqVGi-19" style="edgeStyle=orthogonalEdgeStyle;rounded=0;orthogonalLoop=1;jettySize=auto;html=1;exitX=1;exitY=0.5;exitDx=0;exitDy=0;exitPerimeter=0;endArrow=none;endFill=0;entryX=0;entryY=0.57;entryDx=0;entryDy=0;entryPerimeter=0;" parent="1" source="p33CgT6eAGISMrEgqVGi-17" target="p33CgT6eAGISMrEgqVGi-16" edge="1">
          <mxGeometry relative="1" as="geometry">
            <mxPoint x="886" y="40" as="targetPoint" />
          </mxGeometry>
        </mxCell>
        <mxCell id="p33CgT6eAGISMrEgqVGi-17" value="&lt;font style=&quot;font-size: 10px;&quot;&gt;2.2K&lt;/font&gt;" style="pointerEvents=1;verticalLabelPosition=top;shadow=0;dashed=0;align=center;html=1;verticalAlign=bottom;shape=mxgraph.electrical.resistors.resistor_2;labelPosition=center;fontSize=10;horizontal=1;" parent="1" vertex="1">
          <mxGeometry x="835" y="35" width="30" height="10" as="geometry" />
        </mxCell>
        <mxCell id="p33CgT6eAGISMrEgqVGi-20" value="" style="pointerEvents=1;verticalLabelPosition=bottom;shadow=0;dashed=0;align=center;html=1;verticalAlign=top;shape=mxgraph.electrical.signal_sources.signal_ground;strokeColor=#000000;fontColor=#ff0000;" parent="1" vertex="1">
          <mxGeometry x="921" y="44" width="14" height="10" as="geometry" />
        </mxCell>
        <mxCell id="p33CgT6eAGISMrEgqVGi-25" style="edgeStyle=orthogonalEdgeStyle;rounded=0;orthogonalLoop=1;jettySize=auto;html=1;exitX=1;exitY=0.5;exitDx=0;exitDy=0;exitPerimeter=0;entryX=0;entryY=0.5;entryDx=0;entryDy=0;entryPerimeter=0;endArrow=none;endFill=0;" parent="1" source="p33CgT6eAGISMrEgqVGi-23" target="p33CgT6eAGISMrEgqVGi-17" edge="1">
          <mxGeometry relative="1" as="geometry" />
        </mxCell>
        <mxCell id="p33CgT6eAGISMrEgqVGi-23" value="RST_SYNC" style="html=1;shadow=0;dashed=0;align=left;verticalAlign=middle;shape=mxgraph.arrows2.arrow;dy=0;dx=10;notch=0;fillColor=#ffe6cc;strokeColor=#d79b00;fontSize=7;flipH=0;labelPosition=center;verticalLabelPosition=middle;" parent="1" vertex="1">
          <mxGeometry x="735" y="36" width="80" height="8" as="geometry" />
        </mxCell>
        <mxCell id="p33CgT6eAGISMrEgqVGi-26" style="edgeStyle=orthogonalEdgeStyle;rounded=0;orthogonalLoop=1;jettySize=auto;html=1;exitX=1;exitY=0.57;exitDx=0;exitDy=0;exitPerimeter=0;entryX=0.5;entryY=0;entryDx=0;entryDy=0;entryPerimeter=0;endArrow=none;endFill=0;" parent="1" source="p33CgT6eAGISMrEgqVGi-27" target="p33CgT6eAGISMrEgqVGi-30" edge="1">
          <mxGeometry relative="1" as="geometry" />
        </mxCell>
        <mxCell id="p33CgT6eAGISMrEgqVGi-27" value="" style="verticalLabelPosition=bottom;shadow=0;dashed=0;align=center;html=1;verticalAlign=top;shape=mxgraph.electrical.opto_electronics.led_2;pointerEvents=1;" parent="1" vertex="1">
          <mxGeometry x="886" y="74" width="20" height="10" as="geometry" />
        </mxCell>
        <mxCell id="p33CgT6eAGISMrEgqVGi-28" style="edgeStyle=orthogonalEdgeStyle;rounded=0;orthogonalLoop=1;jettySize=auto;html=1;exitX=1;exitY=0.5;exitDx=0;exitDy=0;exitPerimeter=0;endArrow=none;endFill=0;entryX=0;entryY=0.57;entryDx=0;entryDy=0;entryPerimeter=0;" parent="1" source="p33CgT6eAGISMrEgqVGi-29" target="p33CgT6eAGISMrEgqVGi-27" edge="1">
          <mxGeometry relative="1" as="geometry">
            <mxPoint x="886" y="80" as="targetPoint" />
          </mxGeometry>
        </mxCell>
        <mxCell id="p33CgT6eAGISMrEgqVGi-29" value="&lt;font style=&quot;font-size: 10px;&quot;&gt;2.2K&lt;/font&gt;" style="pointerEvents=1;verticalLabelPosition=top;shadow=0;dashed=0;align=center;html=1;verticalAlign=bottom;shape=mxgraph.electrical.resistors.resistor_2;labelPosition=center;fontSize=10;horizontal=1;" parent="1" vertex="1">
          <mxGeometry x="835" y="75" width="30" height="10" as="geometry" />
        </mxCell>
        <mxCell id="p33CgT6eAGISMrEgqVGi-30" value="" style="pointerEvents=1;verticalLabelPosition=bottom;shadow=0;dashed=0;align=center;html=1;verticalAlign=top;shape=mxgraph.electrical.signal_sources.signal_ground;strokeColor=#000000;fontColor=#ff0000;" parent="1" vertex="1">
          <mxGeometry x="921" y="84" width="14" height="10" as="geometry" />
        </mxCell>
        <mxCell id="p33CgT6eAGISMrEgqVGi-31" style="edgeStyle=orthogonalEdgeStyle;rounded=0;orthogonalLoop=1;jettySize=auto;html=1;exitX=1;exitY=0.5;exitDx=0;exitDy=0;exitPerimeter=0;entryX=0;entryY=0.5;entryDx=0;entryDy=0;entryPerimeter=0;endArrow=none;endFill=0;" parent="1" source="p33CgT6eAGISMrEgqVGi-32" target="p33CgT6eAGISMrEgqVGi-29" edge="1">
          <mxGeometry relative="1" as="geometry" />
        </mxCell>
        <mxCell id="p33CgT6eAGISMrEgqVGi-32" value="PGM_SEL_SW[1]" style="html=1;shadow=0;dashed=0;align=left;verticalAlign=middle;shape=mxgraph.arrows2.arrow;dy=0;dx=10;notch=0;fillColor=#ffe6cc;strokeColor=#d79b00;fontSize=7;flipH=0;labelPosition=center;verticalLabelPosition=middle;" parent="1" vertex="1">
          <mxGeometry x="735" y="76" width="80" height="8" as="geometry" />
        </mxCell>
        <mxCell id="p33CgT6eAGISMrEgqVGi-33" style="edgeStyle=orthogonalEdgeStyle;rounded=0;orthogonalLoop=1;jettySize=auto;html=1;exitX=1;exitY=0.57;exitDx=0;exitDy=0;exitPerimeter=0;entryX=0.5;entryY=0;entryDx=0;entryDy=0;entryPerimeter=0;endArrow=none;endFill=0;" parent="1" source="p33CgT6eAGISMrEgqVGi-34" target="p33CgT6eAGISMrEgqVGi-37" edge="1">
          <mxGeometry relative="1" as="geometry" />
        </mxCell>
        <mxCell id="p33CgT6eAGISMrEgqVGi-34" value="" style="verticalLabelPosition=bottom;shadow=0;dashed=0;align=center;html=1;verticalAlign=top;shape=mxgraph.electrical.opto_electronics.led_2;pointerEvents=1;" parent="1" vertex="1">
          <mxGeometry x="886" y="114" width="20" height="10" as="geometry" />
        </mxCell>
        <mxCell id="p33CgT6eAGISMrEgqVGi-35" style="edgeStyle=orthogonalEdgeStyle;rounded=0;orthogonalLoop=1;jettySize=auto;html=1;exitX=1;exitY=0.5;exitDx=0;exitDy=0;exitPerimeter=0;endArrow=none;endFill=0;entryX=0;entryY=0.57;entryDx=0;entryDy=0;entryPerimeter=0;" parent="1" source="p33CgT6eAGISMrEgqVGi-36" target="p33CgT6eAGISMrEgqVGi-34" edge="1">
          <mxGeometry relative="1" as="geometry">
            <mxPoint x="886" y="120" as="targetPoint" />
          </mxGeometry>
        </mxCell>
        <mxCell id="p33CgT6eAGISMrEgqVGi-36" value="&lt;font style=&quot;font-size: 10px;&quot;&gt;2.2K&lt;/font&gt;" style="pointerEvents=1;verticalLabelPosition=top;shadow=0;dashed=0;align=center;html=1;verticalAlign=bottom;shape=mxgraph.electrical.resistors.resistor_2;labelPosition=center;fontSize=10;horizontal=1;" parent="1" vertex="1">
          <mxGeometry x="835" y="115" width="30" height="10" as="geometry" />
        </mxCell>
        <mxCell id="p33CgT6eAGISMrEgqVGi-37" value="" style="pointerEvents=1;verticalLabelPosition=bottom;shadow=0;dashed=0;align=center;html=1;verticalAlign=top;shape=mxgraph.electrical.signal_sources.signal_ground;strokeColor=#000000;fontColor=#ff0000;" parent="1" vertex="1">
          <mxGeometry x="921" y="124" width="14" height="10" as="geometry" />
        </mxCell>
        <mxCell id="p33CgT6eAGISMrEgqVGi-38" style="edgeStyle=orthogonalEdgeStyle;rounded=0;orthogonalLoop=1;jettySize=auto;html=1;exitX=1;exitY=0.5;exitDx=0;exitDy=0;exitPerimeter=0;entryX=0;entryY=0.5;entryDx=0;entryDy=0;entryPerimeter=0;endArrow=none;endFill=0;" parent="1" source="p33CgT6eAGISMrEgqVGi-39" target="p33CgT6eAGISMrEgqVGi-36" edge="1">
          <mxGeometry relative="1" as="geometry" />
        </mxCell>
        <mxCell id="p33CgT6eAGISMrEgqVGi-39" value="PGM_SEL_SW[0]" style="html=1;shadow=0;dashed=0;align=left;verticalAlign=middle;shape=mxgraph.arrows2.arrow;dy=0;dx=10;notch=0;fillColor=#ffe6cc;strokeColor=#d79b00;fontSize=7;flipH=0;labelPosition=center;verticalLabelPosition=middle;" parent="1" vertex="1">
          <mxGeometry x="735" y="116" width="80" height="8" as="geometry" />
        </mxCell>
        <mxCell id="p33CgT6eAGISMrEgqVGi-40" value="GPIO_IN[0]" style="html=1;shadow=0;dashed=0;align=right;verticalAlign=middle;shape=mxgraph.arrows2.arrow;dy=0;dx=10;notch=0;fillColor=#ffe6cc;strokeColor=#d79b00;fontSize=7;flipH=1;labelPosition=center;verticalLabelPosition=middle;" parent="1" vertex="1">
          <mxGeometry x="615" y="196.02999999999997" width="80" height="8" as="geometry" />
        </mxCell>
        <mxCell id="p33CgT6eAGISMrEgqVGi-41" style="edgeStyle=orthogonalEdgeStyle;rounded=0;orthogonalLoop=1;jettySize=auto;html=1;exitX=1;exitY=0.5;exitDx=0;exitDy=0;exitPerimeter=0;entryX=0.006;entryY=0.554;entryDx=0;entryDy=0;entryPerimeter=0;endArrow=none;endFill=0;strokeColor=#000000;" parent="1" target="p33CgT6eAGISMrEgqVGi-42" edge="1">
          <mxGeometry relative="1" as="geometry">
            <mxPoint x="615" y="200" as="sourcePoint" />
          </mxGeometry>
        </mxCell>
        <mxCell id="p33CgT6eAGISMrEgqVGi-42" value="" style="html=1;shape=mxgraph.electrical.electro-mechanical.twoWaySwitch;aspect=fixed;elSwitchState=2;flipH=1;strokeColor=#000000;fontColor=#ff0000;" parent="1" vertex="1">
          <mxGeometry x="566" y="195" width="29" height="10.05" as="geometry" />
        </mxCell>
        <mxCell id="p33CgT6eAGISMrEgqVGi-43" style="edgeStyle=orthogonalEdgeStyle;rounded=0;orthogonalLoop=1;jettySize=auto;html=1;exitX=0.5;exitY=0;exitDx=0;exitDy=0;exitPerimeter=0;startArrow=none;startFill=0;endArrow=none;endFill=0;entryX=1.001;entryY=0.12;entryDx=0;entryDy=0;entryPerimeter=0;strokeColor=#000000;fontColor=#ff0000;" parent="1" source="p33CgT6eAGISMrEgqVGi-44" target="p33CgT6eAGISMrEgqVGi-42" edge="1">
          <mxGeometry relative="1" as="geometry">
            <mxPoint x="547" y="205" as="targetPoint" />
            <Array as="points">
              <mxPoint x="547" y="196" />
            </Array>
          </mxGeometry>
        </mxCell>
        <mxCell id="p33CgT6eAGISMrEgqVGi-44" value="&lt;div align=&quot;center&quot; style=&quot;font-size: 6px;&quot;&gt;&lt;font style=&quot;font-size: 6px;&quot;&gt;V&lt;sub style=&quot;font-size: 6px;&quot;&gt;dd&lt;/sub&gt;&lt;/font&gt;&lt;/div&gt;" style="verticalLabelPosition=top;verticalAlign=bottom;shape=mxgraph.electrical.signal_sources.vdd;shadow=0;dashed=0;align=center;strokeWidth=1;fontSize=6;html=1;flipV=1;strokeColor=#000000;fontColor=#000000;" parent="1" vertex="1">
          <mxGeometry x="540" y="180" width="14" height="10" as="geometry" />
        </mxCell>
        <mxCell id="p33CgT6eAGISMrEgqVGi-45" value="" style="pointerEvents=1;verticalLabelPosition=bottom;shadow=0;dashed=0;align=center;html=1;verticalAlign=top;shape=mxgraph.electrical.signal_sources.signal_ground;strokeColor=#000000;fontColor=#ff0000;" parent="1" vertex="1">
          <mxGeometry x="540" y="210" width="14" height="10" as="geometry" />
        </mxCell>
        <mxCell id="p33CgT6eAGISMrEgqVGi-46" style="edgeStyle=orthogonalEdgeStyle;rounded=0;orthogonalLoop=1;jettySize=auto;html=1;exitX=0.5;exitY=0;exitDx=0;exitDy=0;exitPerimeter=0;startArrow=none;startFill=0;endArrow=none;endFill=0;entryX=0.955;entryY=0.878;entryDx=0;entryDy=0;entryPerimeter=0;strokeColor=#000000;fontColor=#ff0000;" parent="1" target="p33CgT6eAGISMrEgqVGi-42" edge="1">
          <mxGeometry relative="1" as="geometry">
            <mxPoint x="566" y="204" as="targetPoint" />
            <mxPoint x="547" y="210" as="sourcePoint" />
            <Array as="points">
              <mxPoint x="547" y="204" />
            </Array>
          </mxGeometry>
        </mxCell>
        <mxCell id="p33CgT6eAGISMrEgqVGi-54" style="edgeStyle=orthogonalEdgeStyle;rounded=0;orthogonalLoop=1;jettySize=auto;html=1;exitX=1;exitY=0.57;exitDx=0;exitDy=0;exitPerimeter=0;entryX=0.5;entryY=0;entryDx=0;entryDy=0;entryPerimeter=0;endArrow=none;endFill=0;" parent="1" source="p33CgT6eAGISMrEgqVGi-55" target="p33CgT6eAGISMrEgqVGi-58" edge="1">
          <mxGeometry relative="1" as="geometry" />
        </mxCell>
        <mxCell id="p33CgT6eAGISMrEgqVGi-55" value="" style="verticalLabelPosition=bottom;shadow=0;dashed=0;align=center;html=1;verticalAlign=top;shape=mxgraph.electrical.opto_electronics.led_2;pointerEvents=1;" parent="1" vertex="1">
          <mxGeometry x="891" y="174" width="20" height="10" as="geometry" />
        </mxCell>
        <mxCell id="p33CgT6eAGISMrEgqVGi-56" style="edgeStyle=orthogonalEdgeStyle;rounded=0;orthogonalLoop=1;jettySize=auto;html=1;exitX=1;exitY=0.5;exitDx=0;exitDy=0;exitPerimeter=0;endArrow=none;endFill=0;entryX=0;entryY=0.57;entryDx=0;entryDy=0;entryPerimeter=0;" parent="1" source="p33CgT6eAGISMrEgqVGi-57" target="p33CgT6eAGISMrEgqVGi-55" edge="1">
          <mxGeometry relative="1" as="geometry">
            <mxPoint x="891" y="180" as="targetPoint" />
          </mxGeometry>
        </mxCell>
        <mxCell id="p33CgT6eAGISMrEgqVGi-57" value="&lt;font style=&quot;font-size: 10px;&quot;&gt;2.2K&lt;/font&gt;" style="pointerEvents=1;verticalLabelPosition=top;shadow=0;dashed=0;align=center;html=1;verticalAlign=bottom;shape=mxgraph.electrical.resistors.resistor_2;labelPosition=center;fontSize=10;horizontal=1;" parent="1" vertex="1">
          <mxGeometry x="840" y="175" width="30" height="10" as="geometry" />
        </mxCell>
        <mxCell id="p33CgT6eAGISMrEgqVGi-58" value="" style="pointerEvents=1;verticalLabelPosition=bottom;shadow=0;dashed=0;align=center;html=1;verticalAlign=top;shape=mxgraph.electrical.signal_sources.signal_ground;strokeColor=#000000;fontColor=#ff0000;" parent="1" vertex="1">
          <mxGeometry x="926" y="184" width="14" height="10" as="geometry" />
        </mxCell>
        <mxCell id="p33CgT6eAGISMrEgqVGi-59" style="edgeStyle=orthogonalEdgeStyle;rounded=0;orthogonalLoop=1;jettySize=auto;html=1;exitX=1;exitY=0.5;exitDx=0;exitDy=0;exitPerimeter=0;entryX=0;entryY=0.5;entryDx=0;entryDy=0;entryPerimeter=0;endArrow=none;endFill=0;" parent="1" source="p33CgT6eAGISMrEgqVGi-60" target="p33CgT6eAGISMrEgqVGi-57" edge="1">
          <mxGeometry relative="1" as="geometry" />
        </mxCell>
        <mxCell id="p33CgT6eAGISMrEgqVGi-60" value="GPIO_OUT[0]" style="html=1;shadow=0;dashed=0;align=left;verticalAlign=middle;shape=mxgraph.arrows2.arrow;dy=0;dx=10;notch=0;fillColor=#ffe6cc;strokeColor=#d79b00;fontSize=7;flipH=0;labelPosition=center;verticalLabelPosition=middle;" parent="1" vertex="1">
          <mxGeometry x="740" y="176" width="80" height="8" as="geometry" />
        </mxCell>
        <mxCell id="p33CgT6eAGISMrEgqVGi-61" style="edgeStyle=orthogonalEdgeStyle;rounded=0;orthogonalLoop=1;jettySize=auto;html=1;exitX=1;exitY=0.57;exitDx=0;exitDy=0;exitPerimeter=0;entryX=0.5;entryY=0;entryDx=0;entryDy=0;entryPerimeter=0;endArrow=none;endFill=0;" parent="1" source="p33CgT6eAGISMrEgqVGi-62" target="p33CgT6eAGISMrEgqVGi-65" edge="1">
          <mxGeometry relative="1" as="geometry" />
        </mxCell>
        <mxCell id="p33CgT6eAGISMrEgqVGi-62" value="" style="verticalLabelPosition=bottom;shadow=0;dashed=0;align=center;html=1;verticalAlign=top;shape=mxgraph.electrical.opto_electronics.led_2;pointerEvents=1;" parent="1" vertex="1">
          <mxGeometry x="891" y="214" width="20" height="10" as="geometry" />
        </mxCell>
        <mxCell id="p33CgT6eAGISMrEgqVGi-63" style="edgeStyle=orthogonalEdgeStyle;rounded=0;orthogonalLoop=1;jettySize=auto;html=1;exitX=1;exitY=0.5;exitDx=0;exitDy=0;exitPerimeter=0;endArrow=none;endFill=0;entryX=0;entryY=0.57;entryDx=0;entryDy=0;entryPerimeter=0;" parent="1" source="p33CgT6eAGISMrEgqVGi-64" target="p33CgT6eAGISMrEgqVGi-62" edge="1">
          <mxGeometry relative="1" as="geometry">
            <mxPoint x="891" y="220" as="targetPoint" />
          </mxGeometry>
        </mxCell>
        <mxCell id="p33CgT6eAGISMrEgqVGi-64" value="&lt;font style=&quot;font-size: 10px;&quot;&gt;2.2K&lt;/font&gt;" style="pointerEvents=1;verticalLabelPosition=top;shadow=0;dashed=0;align=center;html=1;verticalAlign=bottom;shape=mxgraph.electrical.resistors.resistor_2;labelPosition=center;fontSize=10;horizontal=1;" parent="1" vertex="1">
          <mxGeometry x="840" y="215" width="30" height="10" as="geometry" />
        </mxCell>
        <mxCell id="p33CgT6eAGISMrEgqVGi-65" value="" style="pointerEvents=1;verticalLabelPosition=bottom;shadow=0;dashed=0;align=center;html=1;verticalAlign=top;shape=mxgraph.electrical.signal_sources.signal_ground;strokeColor=#000000;fontColor=#ff0000;" parent="1" vertex="1">
          <mxGeometry x="926" y="224" width="14" height="10" as="geometry" />
        </mxCell>
        <mxCell id="p33CgT6eAGISMrEgqVGi-66" style="edgeStyle=orthogonalEdgeStyle;rounded=0;orthogonalLoop=1;jettySize=auto;html=1;exitX=1;exitY=0.5;exitDx=0;exitDy=0;exitPerimeter=0;entryX=0;entryY=0.5;entryDx=0;entryDy=0;entryPerimeter=0;endArrow=none;endFill=0;" parent="1" source="p33CgT6eAGISMrEgqVGi-67" target="p33CgT6eAGISMrEgqVGi-64" edge="1">
          <mxGeometry relative="1" as="geometry" />
        </mxCell>
        <mxCell id="p33CgT6eAGISMrEgqVGi-67" value="GPIO_OUT[1]" style="html=1;shadow=0;dashed=0;align=left;verticalAlign=middle;shape=mxgraph.arrows2.arrow;dy=0;dx=10;notch=0;fillColor=#ffe6cc;strokeColor=#d79b00;fontSize=7;flipH=0;labelPosition=center;verticalLabelPosition=middle;" parent="1" vertex="1">
          <mxGeometry x="740" y="216" width="80" height="8" as="geometry" />
        </mxCell>
        <mxCell id="p33CgT6eAGISMrEgqVGi-68" style="edgeStyle=orthogonalEdgeStyle;rounded=0;orthogonalLoop=1;jettySize=auto;html=1;exitX=1;exitY=0.57;exitDx=0;exitDy=0;exitPerimeter=0;entryX=0.5;entryY=0;entryDx=0;entryDy=0;entryPerimeter=0;endArrow=none;endFill=0;" parent="1" source="p33CgT6eAGISMrEgqVGi-69" target="p33CgT6eAGISMrEgqVGi-72" edge="1">
          <mxGeometry relative="1" as="geometry" />
        </mxCell>
        <mxCell id="p33CgT6eAGISMrEgqVGi-69" value="" style="verticalLabelPosition=bottom;shadow=0;dashed=0;align=center;html=1;verticalAlign=top;shape=mxgraph.electrical.opto_electronics.led_2;pointerEvents=1;" parent="1" vertex="1">
          <mxGeometry x="891" y="254" width="20" height="10" as="geometry" />
        </mxCell>
        <mxCell id="p33CgT6eAGISMrEgqVGi-70" style="edgeStyle=orthogonalEdgeStyle;rounded=0;orthogonalLoop=1;jettySize=auto;html=1;exitX=1;exitY=0.5;exitDx=0;exitDy=0;exitPerimeter=0;endArrow=none;endFill=0;entryX=0;entryY=0.57;entryDx=0;entryDy=0;entryPerimeter=0;" parent="1" source="p33CgT6eAGISMrEgqVGi-71" target="p33CgT6eAGISMrEgqVGi-69" edge="1">
          <mxGeometry relative="1" as="geometry">
            <mxPoint x="891" y="260" as="targetPoint" />
          </mxGeometry>
        </mxCell>
        <mxCell id="p33CgT6eAGISMrEgqVGi-71" value="&lt;font style=&quot;font-size: 10px;&quot;&gt;2.2K&lt;/font&gt;" style="pointerEvents=1;verticalLabelPosition=top;shadow=0;dashed=0;align=center;html=1;verticalAlign=bottom;shape=mxgraph.electrical.resistors.resistor_2;labelPosition=center;fontSize=10;horizontal=1;" parent="1" vertex="1">
          <mxGeometry x="840" y="255" width="30" height="10" as="geometry" />
        </mxCell>
        <mxCell id="p33CgT6eAGISMrEgqVGi-72" value="" style="pointerEvents=1;verticalLabelPosition=bottom;shadow=0;dashed=0;align=center;html=1;verticalAlign=top;shape=mxgraph.electrical.signal_sources.signal_ground;strokeColor=#000000;fontColor=#ff0000;" parent="1" vertex="1">
          <mxGeometry x="926" y="264" width="14" height="10" as="geometry" />
        </mxCell>
        <mxCell id="p33CgT6eAGISMrEgqVGi-73" style="edgeStyle=orthogonalEdgeStyle;rounded=0;orthogonalLoop=1;jettySize=auto;html=1;exitX=1;exitY=0.5;exitDx=0;exitDy=0;exitPerimeter=0;entryX=0;entryY=0.5;entryDx=0;entryDy=0;entryPerimeter=0;endArrow=none;endFill=0;" parent="1" source="p33CgT6eAGISMrEgqVGi-74" target="p33CgT6eAGISMrEgqVGi-71" edge="1">
          <mxGeometry relative="1" as="geometry" />
        </mxCell>
        <mxCell id="p33CgT6eAGISMrEgqVGi-74" value="GPIO_OUT[2]" style="html=1;shadow=0;dashed=0;align=left;verticalAlign=middle;shape=mxgraph.arrows2.arrow;dy=0;dx=10;notch=0;fillColor=#ffe6cc;strokeColor=#d79b00;fontSize=7;flipH=0;labelPosition=center;verticalLabelPosition=middle;" parent="1" vertex="1">
          <mxGeometry x="740" y="256" width="80" height="8" as="geometry" />
        </mxCell>
        <mxCell id="p33CgT6eAGISMrEgqVGi-75" style="edgeStyle=orthogonalEdgeStyle;rounded=0;orthogonalLoop=1;jettySize=auto;html=1;exitX=1;exitY=0.57;exitDx=0;exitDy=0;exitPerimeter=0;entryX=0.5;entryY=0;entryDx=0;entryDy=0;entryPerimeter=0;endArrow=none;endFill=0;" parent="1" source="p33CgT6eAGISMrEgqVGi-76" target="p33CgT6eAGISMrEgqVGi-79" edge="1">
          <mxGeometry relative="1" as="geometry" />
        </mxCell>
        <mxCell id="p33CgT6eAGISMrEgqVGi-76" value="" style="verticalLabelPosition=bottom;shadow=0;dashed=0;align=center;html=1;verticalAlign=top;shape=mxgraph.electrical.opto_electronics.led_2;pointerEvents=1;" parent="1" vertex="1">
          <mxGeometry x="891" y="294" width="20" height="10" as="geometry" />
        </mxCell>
        <mxCell id="p33CgT6eAGISMrEgqVGi-77" style="edgeStyle=orthogonalEdgeStyle;rounded=0;orthogonalLoop=1;jettySize=auto;html=1;exitX=1;exitY=0.5;exitDx=0;exitDy=0;exitPerimeter=0;endArrow=none;endFill=0;entryX=0;entryY=0.57;entryDx=0;entryDy=0;entryPerimeter=0;" parent="1" source="p33CgT6eAGISMrEgqVGi-78" target="p33CgT6eAGISMrEgqVGi-76" edge="1">
          <mxGeometry relative="1" as="geometry">
            <mxPoint x="891" y="300" as="targetPoint" />
          </mxGeometry>
        </mxCell>
        <mxCell id="p33CgT6eAGISMrEgqVGi-78" value="&lt;font style=&quot;font-size: 10px;&quot;&gt;2.2K&lt;/font&gt;" style="pointerEvents=1;verticalLabelPosition=top;shadow=0;dashed=0;align=center;html=1;verticalAlign=bottom;shape=mxgraph.electrical.resistors.resistor_2;labelPosition=center;fontSize=10;horizontal=1;" parent="1" vertex="1">
          <mxGeometry x="840" y="295" width="30" height="10" as="geometry" />
        </mxCell>
        <mxCell id="p33CgT6eAGISMrEgqVGi-79" value="" style="pointerEvents=1;verticalLabelPosition=bottom;shadow=0;dashed=0;align=center;html=1;verticalAlign=top;shape=mxgraph.electrical.signal_sources.signal_ground;strokeColor=#000000;fontColor=#ff0000;" parent="1" vertex="1">
          <mxGeometry x="926" y="304" width="14" height="10" as="geometry" />
        </mxCell>
        <mxCell id="p33CgT6eAGISMrEgqVGi-80" style="edgeStyle=orthogonalEdgeStyle;rounded=0;orthogonalLoop=1;jettySize=auto;html=1;exitX=1;exitY=0.5;exitDx=0;exitDy=0;exitPerimeter=0;entryX=0;entryY=0.5;entryDx=0;entryDy=0;entryPerimeter=0;endArrow=none;endFill=0;" parent="1" source="p33CgT6eAGISMrEgqVGi-81" target="p33CgT6eAGISMrEgqVGi-78" edge="1">
          <mxGeometry relative="1" as="geometry" />
        </mxCell>
        <mxCell id="p33CgT6eAGISMrEgqVGi-81" value="GPIO_OUT[3]" style="html=1;shadow=0;dashed=0;align=left;verticalAlign=middle;shape=mxgraph.arrows2.arrow;dy=0;dx=10;notch=0;fillColor=#ffe6cc;strokeColor=#d79b00;fontSize=7;flipH=0;labelPosition=center;verticalLabelPosition=middle;" parent="1" vertex="1">
          <mxGeometry x="740" y="296" width="80" height="8" as="geometry" />
        </mxCell>
        <mxCell id="p33CgT6eAGISMrEgqVGi-82" value="GPIO_IN[1]" style="html=1;shadow=0;dashed=0;align=right;verticalAlign=middle;shape=mxgraph.arrows2.arrow;dy=0;dx=10;notch=0;fillColor=#ffe6cc;strokeColor=#d79b00;fontSize=7;flipH=1;labelPosition=center;verticalLabelPosition=middle;" parent="1" vertex="1">
          <mxGeometry x="615" y="256.03" width="80" height="8" as="geometry" />
        </mxCell>
        <mxCell id="p33CgT6eAGISMrEgqVGi-83" style="edgeStyle=orthogonalEdgeStyle;rounded=0;orthogonalLoop=1;jettySize=auto;html=1;exitX=1;exitY=0.5;exitDx=0;exitDy=0;exitPerimeter=0;entryX=0.006;entryY=0.554;entryDx=0;entryDy=0;entryPerimeter=0;endArrow=none;endFill=0;strokeColor=#000000;" parent="1" target="p33CgT6eAGISMrEgqVGi-84" edge="1">
          <mxGeometry relative="1" as="geometry">
            <mxPoint x="615" y="260" as="sourcePoint" />
          </mxGeometry>
        </mxCell>
        <mxCell id="p33CgT6eAGISMrEgqVGi-84" value="" style="html=1;shape=mxgraph.electrical.electro-mechanical.twoWaySwitch;aspect=fixed;elSwitchState=2;flipH=1;strokeColor=#000000;fontColor=#ff0000;" parent="1" vertex="1">
          <mxGeometry x="566" y="255" width="29" height="10.05" as="geometry" />
        </mxCell>
        <mxCell id="p33CgT6eAGISMrEgqVGi-85" style="edgeStyle=orthogonalEdgeStyle;rounded=0;orthogonalLoop=1;jettySize=auto;html=1;exitX=0.5;exitY=0;exitDx=0;exitDy=0;exitPerimeter=0;startArrow=none;startFill=0;endArrow=none;endFill=0;entryX=1.001;entryY=0.12;entryDx=0;entryDy=0;entryPerimeter=0;strokeColor=#000000;fontColor=#ff0000;" parent="1" source="p33CgT6eAGISMrEgqVGi-86" target="p33CgT6eAGISMrEgqVGi-84" edge="1">
          <mxGeometry relative="1" as="geometry">
            <mxPoint x="547" y="265" as="targetPoint" />
            <Array as="points">
              <mxPoint x="547" y="256" />
            </Array>
          </mxGeometry>
        </mxCell>
        <mxCell id="p33CgT6eAGISMrEgqVGi-86" value="&lt;div align=&quot;center&quot; style=&quot;font-size: 6px;&quot;&gt;&lt;font style=&quot;font-size: 6px;&quot;&gt;V&lt;sub style=&quot;font-size: 6px;&quot;&gt;dd&lt;/sub&gt;&lt;/font&gt;&lt;/div&gt;" style="verticalLabelPosition=top;verticalAlign=bottom;shape=mxgraph.electrical.signal_sources.vdd;shadow=0;dashed=0;align=center;strokeWidth=1;fontSize=6;html=1;flipV=1;strokeColor=#000000;fontColor=#000000;" parent="1" vertex="1">
          <mxGeometry x="540" y="240" width="14" height="10" as="geometry" />
        </mxCell>
        <mxCell id="p33CgT6eAGISMrEgqVGi-87" value="" style="pointerEvents=1;verticalLabelPosition=bottom;shadow=0;dashed=0;align=center;html=1;verticalAlign=top;shape=mxgraph.electrical.signal_sources.signal_ground;strokeColor=#000000;fontColor=#ff0000;" parent="1" vertex="1">
          <mxGeometry x="540" y="270" width="14" height="10" as="geometry" />
        </mxCell>
        <mxCell id="p33CgT6eAGISMrEgqVGi-88" style="edgeStyle=orthogonalEdgeStyle;rounded=0;orthogonalLoop=1;jettySize=auto;html=1;exitX=0.5;exitY=0;exitDx=0;exitDy=0;exitPerimeter=0;startArrow=none;startFill=0;endArrow=none;endFill=0;entryX=0.955;entryY=0.878;entryDx=0;entryDy=0;entryPerimeter=0;strokeColor=#000000;fontColor=#ff0000;" parent="1" target="p33CgT6eAGISMrEgqVGi-84" edge="1">
          <mxGeometry relative="1" as="geometry">
            <mxPoint x="566" y="264" as="targetPoint" />
            <mxPoint x="547" y="270" as="sourcePoint" />
            <Array as="points">
              <mxPoint x="547" y="264" />
            </Array>
          </mxGeometry>
        </mxCell>
        <mxCell id="p33CgT6eAGISMrEgqVGi-89" value="&lt;div style=&quot;font-size: 11px;&quot;&gt;&lt;font style=&quot;font-size: 11px;&quot;&gt;USB-UART&lt;/font&gt;&lt;/div&gt;&lt;div style=&quot;font-size: 11px;&quot;&gt;&lt;font style=&quot;font-size: 11px;&quot;&gt;Converter&lt;font style=&quot;font-size: 11px;&quot;&gt;&lt;br&gt;&lt;/font&gt;&lt;/font&gt;&lt;/div&gt;" style="rounded=0;whiteSpace=wrap;html=1;fillColor=#fff2cc;strokeColor=#d6b656;" parent="1" vertex="1">
          <mxGeometry x="540" y="320" width="120" height="60" as="geometry" />
        </mxCell>
        <mxCell id="p33CgT6eAGISMrEgqVGi-99" style="edgeStyle=orthogonalEdgeStyle;rounded=0;orthogonalLoop=1;jettySize=auto;html=1;exitX=1;exitY=0.5;exitDx=0;exitDy=0;exitPerimeter=0;entryX=0;entryY=0.5;entryDx=0;entryDy=0;endArrow=none;endFill=0;" parent="1" source="p33CgT6eAGISMrEgqVGi-92" target="p33CgT6eAGISMrEgqVGi-96" edge="1">
          <mxGeometry relative="1" as="geometry" />
        </mxCell>
        <mxCell id="p33CgT6eAGISMrEgqVGi-92" value="UART_TX" style="html=1;shadow=0;dashed=0;align=left;verticalAlign=middle;shape=mxgraph.arrows2.arrow;dy=0;dx=10;notch=0;fillColor=#ffe6cc;strokeColor=#d79b00;fontSize=7;flipH=0;labelPosition=center;verticalLabelPosition=middle;" parent="1" vertex="1">
          <mxGeometry x="440" y="356" width="80" height="8" as="geometry" />
        </mxCell>
        <mxCell id="p33CgT6eAGISMrEgqVGi-97" style="edgeStyle=orthogonalEdgeStyle;rounded=0;orthogonalLoop=1;jettySize=auto;html=1;exitX=1;exitY=0.5;exitDx=0;exitDy=0;exitPerimeter=0;entryX=0;entryY=0.5;entryDx=0;entryDy=0;endArrow=none;endFill=0;" parent="1" source="p33CgT6eAGISMrEgqVGi-93" target="p33CgT6eAGISMrEgqVGi-95" edge="1">
          <mxGeometry relative="1" as="geometry" />
        </mxCell>
        <mxCell id="p33CgT6eAGISMrEgqVGi-93" value="UART_RX" style="html=1;shadow=0;dashed=0;align=left;verticalAlign=middle;shape=mxgraph.arrows2.arrow;dy=0;dx=10;notch=0;fillColor=#ffe6cc;strokeColor=#d79b00;fontSize=7;flipH=0;labelPosition=center;verticalLabelPosition=middle;" parent="1" vertex="1">
          <mxGeometry x="440" y="336" width="80" height="8" as="geometry" />
        </mxCell>
        <mxCell id="p33CgT6eAGISMrEgqVGi-95" value="&lt;font style=&quot;font-size: 7px;&quot;&gt;TX&lt;/font&gt;" style="text;html=1;strokeColor=none;fillColor=none;align=left;verticalAlign=middle;whiteSpace=wrap;rounded=0;" parent="1" vertex="1">
          <mxGeometry x="540" y="335" width="40" height="10" as="geometry" />
        </mxCell>
        <mxCell id="p33CgT6eAGISMrEgqVGi-96" value="&lt;font style=&quot;font-size: 7px;&quot;&gt;RX&lt;/font&gt;" style="text;html=1;strokeColor=none;fillColor=none;align=left;verticalAlign=middle;whiteSpace=wrap;rounded=0;" parent="1" vertex="1">
          <mxGeometry x="540" y="355" width="40" height="10" as="geometry" />
        </mxCell>
        <mxCell id="s9okOD3CWAa4yVyvhVGe-1" value="&lt;div&gt;GPIO_IN[0]&lt;/div&gt;" style="html=1;shadow=0;dashed=0;align=left;verticalAlign=middle;shape=mxgraph.arrows2.arrow;dy=0;dx=10;notch=0;fillColor=#ffe6cc;strokeColor=#d79b00;fontSize=7;flipH=0;labelPosition=center;verticalLabelPosition=middle;" parent="1" vertex="1">
          <mxGeometry x="40" y="261.03" width="80" height="8" as="geometry" />
        </mxCell>
        <mxCell id="s9okOD3CWAa4yVyvhVGe-2" value="&lt;div&gt;GPIO_IN[1]&lt;/div&gt;" style="html=1;shadow=0;dashed=0;align=left;verticalAlign=middle;shape=mxgraph.arrows2.arrow;dy=0;dx=10;notch=0;fillColor=#ffe6cc;strokeColor=#d79b00;fontSize=7;flipH=0;labelPosition=center;verticalLabelPosition=middle;" parent="1" vertex="1">
          <mxGeometry x="40" y="251.03" width="80" height="8" as="geometry" />
        </mxCell>
        <mxCell id="Cdjs30osqwjPSGUu_mH4-1" value="" style="pointerEvents=1;verticalLabelPosition=bottom;shadow=0;dashed=0;align=center;html=1;verticalAlign=top;shape=mxgraph.electrical.signal_sources.signal_ground;strokeColor=#000000;fontColor=#ff0000;" vertex="1" parent="1">
          <mxGeometry x="393" y="295" width="14" height="10" as="geometry" />
        </mxCell>
        <mxCell id="Cdjs30osqwjPSGUu_mH4-3" value="&lt;div align=&quot;center&quot; style=&quot;font-size: 6px;&quot;&gt;&lt;font style=&quot;font-size: 6px;&quot;&gt;V&lt;sub style=&quot;font-size: 6px;&quot;&gt;dd&lt;/sub&gt;&lt;/font&gt;&lt;/div&gt;" style="verticalLabelPosition=top;verticalAlign=bottom;shape=mxgraph.electrical.signal_sources.vdd;shadow=0;dashed=0;align=center;strokeWidth=1;fontSize=6;html=1;flipV=1;strokeColor=#000000;fontColor=#000000;" vertex="1" parent="1">
          <mxGeometry x="413" y="20" width="14" height="10" as="geometry" />
        </mxCell>
      </root>
    </mxGraphModel>
  </diagram>
</mxfile>